<svg
    xmlns="http://www.w3.org/2000/svg"
    xmlns:xlink="http://www.w3.org/1999/xlink"
    width="47px" height="56px">
    <path fill-rule="evenodd"  fill="rgb(255, 75, 100)"
          d="M39.361,56.001 L8.035,56.001 C4.135,56.001 1.000,52.859 1.000,49.001 L1.000,44.000 L1.000,8.147 C0.975,7.924 0.961,7.697 0.961,7.467 L0.961,6.535 C0.961,2.932 4.135,0.001 8.035,0.001 L46.435,0.001 L46.435,2.000 L44.414,2.000 L40.372,2.000 L8.035,2.000 C5.249,2.000 2.982,3.962 2.982,6.535 L2.982,7.467 C2.982,10.041 5.249,12.000 8.035,12.000 L40.999,12.000 L44.998,12.000 L46.998,12.000 L46.998,12.788 L46.998,14.001 L46.998,33.001 L46.998,44.000 L46.998,49.001 C46.998,52.859 43.261,56.001 39.361,56.001 ZM44.998,49.001 L44.998,48.890 L44.998,44.000 L44.998,33.001 L44.998,28.112 L44.998,22.000 L44.998,14.001 L8.035,14.001 C6.057,14.001 4.267,13.245 2.982,12.031 L2.982,44.000 L2.982,48.890 L2.982,49.001 L2.982,50.001 L3.085,50.001 C3.235,50.729 3.560,51.392 3.993,51.968 L3.993,52.001 L4.017,52.001 C4.940,53.209 6.391,54.000 8.035,54.000 L39.361,54.000 C41.006,54.000 43.061,53.209 43.974,52.001 L43.998,52.001 L43.998,51.968 C44.427,51.392 44.748,50.729 44.896,50.001 L44.998,50.001 L44.998,49.001 ZM34.313,34.001 L13.677,34.001 C12.200,34.001 10.999,32.800 10.999,31.322 L10.999,22.680 C10.999,21.202 12.200,20.000 13.677,20.000 L34.313,20.000 C35.791,20.000 36.991,21.202 36.991,22.680 L36.991,31.322 C36.991,32.800 35.791,34.001 34.313,34.001 ZM34.992,22.680 C34.992,22.306 34.687,22.000 34.313,22.000 L13.677,22.000 C13.303,22.000 12.998,22.306 12.998,22.680 L12.998,31.322 C12.998,31.696 13.303,32.001 13.677,32.001 L34.313,32.001 C34.687,32.001 34.992,31.696 34.992,31.322 L34.992,22.680 ZM19.656,42.001 L27.740,42.001 C28.299,42.001 28.751,42.447 28.751,43.001 C28.751,43.555 28.299,44.000 27.740,44.000 L19.656,44.000 C19.098,44.000 18.646,43.555 18.646,43.001 C18.646,42.447 19.098,42.001 19.656,42.001 ZM21.677,46.001 L25.719,46.001 C26.277,46.001 26.730,46.447 26.730,47.000 C26.730,47.555 26.277,48.001 25.719,48.001 L21.677,48.001 C21.119,48.001 20.667,47.555 20.667,47.000 C20.667,46.447 21.119,46.001 21.677,46.001 ZM45.930,10.001 L7.530,10.001 C6.972,10.001 6.519,9.552 6.519,9.000 C6.519,8.449 6.972,8.000 7.530,8.000 L45.930,8.000 C46.488,8.000 46.940,8.449 46.940,9.000 C46.940,9.552 46.488,10.001 45.930,10.001 ZM45.930,6.002 L7.530,6.002 C6.972,6.002 6.519,5.553 6.519,5.000 C6.519,4.449 6.972,4.001 7.530,4.001 L45.930,4.001 C46.488,4.001 46.940,4.449 46.940,5.000 C46.940,5.553 46.488,6.002 45.930,6.002 Z"/>
</svg>