<svg xmlns="http://www.w3.org/2000/svg" width="46.03" height="56" viewBox="0 0 46.03 56">
  <metadata><?xpacket begin="﻿" id="W5M0MpCehiHzreSzNTczkc9d"?>
<x:xmpmeta xmlns:x="adobe:ns:meta/" x:xmptk="Adobe XMP Core 5.6-c138 79.159824, 2016/09/14-01:09:01        ">
   <rdf:RDF xmlns:rdf="http://www.w3.org/1999/02/22-rdf-syntax-ns#">
      <rdf:Description rdf:about=""/>
   </rdf:RDF>
</x:xmpmeta>
                                                                                                    
                                                                                                    
                                                                                                    
                                                                                                    
                                                                                                    
                                                                                                    
                                                                                                    
                                                                                                    
                                                                                                    
                                                                                                    
                                                                                                    
                                                                                                    
                                                                                                    
                                                                                                    
                                                                                                    
                                                                                                    
                                                                                                    
                                                                                                    
                                                                                                    
                                                                                                    
                           
<?xpacket end="w"?></metadata>
<defs>
    <style>
      .cls-1 {
        fill: #ff4b64;
        fill-rule: evenodd;
      }
    </style>
  </defs>
  <path id="icon" class="cls-1" d="M1177.93,2956h-38.4a1,1,0,1,1,0-2h38.4A1,1,0,1,1,1177.93,2956Zm0,4h-38.4a1,1,0,1,1,0-2h38.4A1,1,0,1,1,1177.93,2960Zm-0.93,2h-36.96a4.775,4.775,0,0,1-5.06-4.53v-0.93a4.777,4.777,0,0,1,5.06-4.54h38.4v-2h-38.4a6.834,6.834,0,0,0-7.08,6.54v0.93a6.832,6.832,0,0,0,7.08,6.53H1179v-2h-2Zm-37.98-7h38.4m-38.4,4h38.4m-0.42,4.87V3000h-0.1a4.992,4.992,0,0,1-.9,1.97V3002h-0.03a6.251,6.251,0,0,1-4.61,2h-31.32a5.034,5.034,0,0,1-4.02-2h-0.03v-0.03a4.856,4.856,0,0,1-.9-1.97h-0.11v-40.84c-0.01-.02-0.02-0.03-0.03-0.05a2.862,2.862,0,0,1-.22-0.3,0.3,0.3,0,0,1-.04-0.1c-0.01,0-.01-0.01-0.01-0.02a3.015,3.015,0,0,1-.26-2.26,1.783,1.783,0,0,1,.14-0.36L1133,2956v43a7.016,7.016,0,0,0,7.04,7h31.32c3.9,0,7.64-3.14,7.64-7v-36.21ZM1166.31,2984h-20.63a2.68,2.68,0,0,1-2.68-2.68v-8.64a2.68,2.68,0,0,1,2.68-2.68h20.63a2.68,2.68,0,0,1,2.68,2.68v8.64A2.68,2.68,0,0,1,1166.31,2984Zm-20.63-12a0.681,0.681,0,0,0-.68.68v8.64a0.674,0.674,0,0,0,.68.68h20.63a0.674,0.674,0,0,0,.68-0.68v-8.64a0.681,0.681,0,0,0-.68-0.68h-20.63Zm14.06,22h-8.08a1,1,0,1,1,0-2h8.08A1,1,0,1,1,1159.74,2994Zm-2.02,4h-4.04a1,1,0,1,1,0-2h4.04A1,1,0,1,1,1157.72,2998Z" transform="translate(-1132.97 -2950)"/>
</svg>
