<svg id="icon" xmlns="http://www.w3.org/2000/svg" width="148" height="94" viewBox="0 0 148 94">
  <metadata><?xpacket begin="﻿" id="W5M0MpCehiHzreSzNTczkc9d"?>
<x:xmpmeta xmlns:x="adobe:ns:meta/" x:xmptk="Adobe XMP Core 5.6-c138 79.159824, 2016/09/14-01:09:01        ">
   <rdf:RDF xmlns:rdf="http://www.w3.org/1999/02/22-rdf-syntax-ns#">
      <rdf:Description rdf:about=""/>
   </rdf:RDF>
</x:xmpmeta>
                                                                                                    
                                                                                                    
                                                                                                    
                                                                                                    
                                                                                                    
                                                                                                    
                                                                                                    
                                                                                                    
                                                                                                    
                                                                                                    
                                                                                                    
                                                                                                    
                                                                                                    
                                                                                                    
                                                                                                    
                                                                                                    
                                                                                                    
                                                                                                    
                                                                                                    
                                                                                                    
                           
<?xpacket end="w"?></metadata>
<defs>
    <style>
      .cls-1, .cls-2 {
        fill: #dfdcd5;
      }

      .cls-2, .cls-5 {
        fill-rule: evenodd;
      }

      .cls-3 {
        fill: #f8f6f2;
      }

      .cls-4 {
        fill: #e8e5de;
      }

      .cls-5, .cls-6 {
        fill: #c9c6bf;
      }

      .cls-7 {
        fill: #f5f3f0;
      }
    </style>
  </defs>
  <g id="iMac">
    <rect id="Rounded_Rectangle_18" data-name="Rounded Rectangle 18" class="cls-1" x="59" y="91" width="46" height="3" rx="1.5" ry="1.5"/>
    <path class="cls-2" d="M668,4019h20l2,13H666Z" transform="translate(-596 -3941)"/>
    <rect class="cls-3" x="35" y="4" width="94" height="58"/>
    <rect id="Rounded_Rectangle_17_copy" data-name="Rounded Rectangle 17 copy" class="cls-4" x="31" y="62" width="102" height="16" rx="4" ry="4"/>
    <path id="Rounded_Rectangle_16" data-name="Rounded Rectangle 16" class="cls-5" d="M631,3941h94a4,4,0,0,1,4,4v58a4,4,0,0,1-4,4H631a4,4,0,0,1-4-4v-58A4,4,0,0,1,631,3941Zm2,4h90a2,2,0,0,1,2,2v54a2,2,0,0,1-2,2H633a2,2,0,0,1-2-2v-54A2,2,0,0,1,633,3945Z" transform="translate(-596 -3941)"/>
    <circle class="cls-6" cx="82" cy="72" r="3"/>
  </g>
  <g id="iPad">
    <rect class="cls-3" x="3" y="38" width="35" height="46"/>
    <path id="Rounded_Rectangle_13" data-name="Rounded Rectangle 13" class="cls-5" d="M600,3972h33a4,4,0,0,1,4,4v54a4,4,0,0,1-4,4H600a4,4,0,0,1-4-4v-54A4,4,0,0,1,600,3972Zm1,7h31a2,2,0,0,1,2,2v42a2,2,0,0,1-2,2H601a2,2,0,0,1-2-2v-42A2,2,0,0,1,601,3979Z" transform="translate(-596 -3941)"/>
    <circle class="cls-7" cx="20.5" cy="34.5" r="1.5"/>
    <circle class="cls-7" cx="20.5" cy="88.5" r="2.5"/>
  </g>
  <g id="iPhone">
    <rect class="cls-3" x="125" y="52" width="21" height="36"/>
    <path id="Rounded_Rectangle_13_copy" data-name="Rounded Rectangle 13 copy" class="cls-5" d="M723,3988h17a4,4,0,0,1,4,4v38a4,4,0,0,1-4,4H723a4,4,0,0,1-4-4v-38A4,4,0,0,1,723,3988Zm0,5h17a2,2,0,0,1,2,2v32a2,2,0,0,1-2,2H723a2,2,0,0,1-2-2v-32A2,2,0,0,1,723,3993Z" transform="translate(-596 -3941)"/>
    <rect id="Rounded_Rectangle_14" data-name="Rounded Rectangle 14" class="cls-7" x="134" y="49" width="3" height="1" rx="0.5" ry="0.5"/>
    <circle id="Ellipse_4_copy" data-name="Ellipse 4 copy" class="cls-7" cx="135.5" cy="90.5" r="1.5"/>
  </g>
</svg>
