<svg xmlns="http://www.w3.org/2000/svg" width="123.75" height="70" viewBox="0 0 123.75 70">
  <metadata><?xpacket begin="﻿" id="W5M0MpCehiHzreSzNTczkc9d"?>
<x:xmpmeta xmlns:x="adobe:ns:meta/" x:xmptk="Adobe XMP Core 5.6-c138 79.159824, 2016/09/14-01:09:01        ">
   <rdf:RDF xmlns:rdf="http://www.w3.org/1999/02/22-rdf-syntax-ns#">
      <rdf:Description rdf:about=""/>
   </rdf:RDF>
</x:xmpmeta>
                                                                                                    
                                                                                                    
                                                                                                    
                                                                                                    
                                                                                                    
                                                                                                    
                                                                                                    
                                                                                                    
                                                                                                    
                                                                                                    
                                                                                                    
                                                                                                    
                                                                                                    
                                                                                                    
                                                                                                    
                                                                                                    
                                                                                                    
                                                                                                    
                                                                                                    
                                                                                                    
                           
<?xpacket end="w"?></metadata>
<defs>
    <style>
      .cls-1 {
        fill: #a0e51a;
        fill-rule: evenodd;
      }
    </style>
  </defs>
  <path class="cls-1" d="M867.269,1266.7a8.258,8.258,0,0,0,4.283,2.78c-0.009-1,.01-2.59.1-4.02a14.23,14.23,0,0,0-3.226.47C867.965,1266.05,867.014,1266.3,867.269,1266.7Zm47.147-.11c0.05-.41-0.082-1.41-0.284-1.21a12.353,12.353,0,0,0-2.788,3.74,2.244,2.244,0,0,0,.646-0.08A3.746,3.746,0,0,0,914.416,1266.59Zm-29.109-7.39a1.263,1.263,0,0,0-.465,1.32,7.919,7.919,0,0,1,1.833-1.96A1.955,1.955,0,0,0,885.307,1259.2Zm4.619-.18a0.376,0.376,0,0,0-.258-0.28c-0.968-.31-1.994.6-2.748,1.33a3.144,3.144,0,0,0-.835,1.13,4.75,4.75,0,0,0,2.873-.69A1.667,1.667,0,0,0,889.926,1259.02Zm95.388,25.14a4.285,4.285,0,0,0-1.348-3.23c-2.922-2.89-5.833-5.78-8.717-8.71a4.574,4.574,0,0,0-3.45-1.42q-23.817.015-47.633,0.02a1.639,1.639,0,0,1-1.269-.51c-2.276-2.31-4.579-4.59-6.873-6.88a2.74,2.74,0,0,0-3-.87,0.7,0.7,0,0,1-.568-0.14,2.194,2.194,0,0,0-3.062-.04,0.507,0.507,0,0,1-.687.05,3.765,3.765,0,0,0-2.429-.54c-1,.1-2.014.15-3,0.34a1.86,1.86,0,0,1-1.892-.53c-1.349-1.26-2.745-1.02-3.858.52a0.414,0.414,0,0,1-.264.2c-0.547-.04-1.094-0.1-1.636-0.19-0.314-.05-0.611-0.21-0.925-0.25-0.768-.09-1.541-0.14-2.363-0.22,0.118-.26.221-0.47,0.31-0.69a3.2,3.2,0,0,0-.932-4.01,10.672,10.672,0,0,0-2.352-1.2,5.552,5.552,0,0,0-5,.8,20.357,20.357,0,0,0-2.424,2.2,0.014,0.014,0,0,1,.015.01h0.007a0.239,0.239,0,0,0-.029-0.01h0.007c-0.145-.1-0.288-0.2-0.429-0.31a23.971,23.971,0,0,0-9.112-4.12c-0.839-.18-1.694-0.29-2.542-0.43h-2.419c-0.315.05-.629,0.1-0.945,0.14a5.689,5.689,0,0,0-3.949,1.54,3.091,3.091,0,0,0-.957,2.56,2.253,2.253,0,0,0,1.7,1.99,3.161,3.161,0,0,0,3.184-.53,0.965,0.965,0,0,1,.46-0.34c1.145,0.05,2.287.15,3.4,0.23-0.212.87-.42,1.56-0.538,2.27a0.674,0.674,0,0,1-.567.64,8.6,8.6,0,0,0-3.244,1.55c-1.289,1.06-1.735,2.48-1.051,3.73a9.18,9.18,0,0,0,1.5,2.09q13.569,13.59,27.181,27.13c0.135,0.14.254,0.29,0.385,0.44-0.14.16-.228,0.26-0.327,0.36-2.336,2.34-4.663,4.68-7.014,6.99a4.023,4.023,0,0,0-1.312,3.12c0.03,0.97.006,1.93,0.006,2.9,0,3.42.012,6.83,0,10.25a2.956,2.956,0,0,0,2.936,2.94c4.431-.07,8.865-0.05,13.3-0.01a3.981,3.981,0,0,0,3.062-1.27c2.265-2.29,4.55-4.56,6.828-6.84,0.166-.16.343-0.32,0.532-0.49,0.2,0.19.366,0.33,0.522,0.49q3.438,3.435,6.873,6.87a3.923,3.923,0,0,0,2.956,1.24q24.9-.03,49.809,0a3.959,3.959,0,0,0,2.959-1.23q4.5-4.515,9.011-9.01a3.839,3.839,0,0,0,1.182-2.86Q985.3,1297.525,985.314,1284.16Zm-74.924-20.4c0.186-.25.751-0.7,0.748-0.28-0.129,1.67-1.674,2.83-1.6,4.66a12.814,12.814,0,0,1,3.974-4.02,0.813,0.813,0,0,1,.8-0.02,2.671,2.671,0,0,1,1.161,2.39,5.314,5.314,0,0,1-3.1,4.15,3.153,3.153,0,0,1-2.012.33,33.62,33.62,0,0,0-1.6,5.98c-0.044.18-.413-0.03-0.568-0.1a1.769,1.769,0,0,1-.93-1.29,20.21,20.21,0,0,1,1.471-6C907.629,1267.47,909.048,1265.36,910.39,1263.76Zm-7.871,3.04c0.026-.36.413-0.31,0.645-0.39a7.31,7.31,0,0,0,.542-1.23c-0.439-.23-1.109-0.13-1.237-0.75-0.053-.15-0.1-0.33.1-0.36a23.909,23.909,0,0,1,4.722-.52,1.122,1.122,0,0,1,.491.29,1.406,1.406,0,0,1,.569,1,2.244,2.244,0,0,1-1.6.39,10.01,10.01,0,0,1-1.651.03c-0.12.34-.232,0.73-0.342,1.07a6.42,6.42,0,0,1,2.226.11,0.8,0.8,0,0,1,.051.82c-0.532.42-1.847,0.23-2.732,0.36a4.282,4.282,0,0,0-.493,1.4c1.084,0.02,2.091-.44,3.174-0.31a0.805,0.805,0,0,1,.335.87c-1.213.91-2.528,1.81-4.129,1.5a2.128,2.128,0,0,1-1.033-1.57,3.552,3.552,0,0,1,.5-2.06C902.675,1267.16,902.5,1267.02,902.519,1266.8Zm-7.02,1.62a10.827,10.827,0,0,1,.956-4.12,0.408,0.408,0,0,1,.594-0.23c1.342,1.19,1.987,2.81,3.1,4.17a1.413,1.413,0,0,0,.077-0.98,29.735,29.735,0,0,0-.981-4.27c-0.068-.22-0.1-0.61.181-0.57a2.759,2.759,0,0,1,1.341,1.34,6.858,6.858,0,0,1,.7,5.57,1.839,1.839,0,0,1-1.289.97,1.382,1.382,0,0,1-1.162-.95c-0.612-.99-1.174-1.94-1.729-3.01-0.074-.11-0.155.13-0.155,0.25a15.808,15.808,0,0,1-.361,3.9,0.514,0.514,0,0,1-.645.17C895.294,1270.25,895.448,1269.21,895.5,1268.42Zm-1.185-4.76a1.592,1.592,0,0,1,.954.36,0.6,0.6,0,0,1-.386.69c-1.808.44-3.872,0.24-5.626,0.78-0.1.05-.13,0.07-0.078,0.15,1.651,0.67,3.794.13,5.29,1.14a2.178,2.178,0,0,1,.568,2.13c-0.258,1.21-1.539,1.59-2.607,1.75a4,4,0,0,1-4.128-1.64,1.2,1.2,0,0,1,.334-1.32c1.059-.72,2.658-0.36,3.794-0.05,0.326,0.1.81,0.25,0.671,0.52a2.2,2.2,0,0,1-1.729.49c-0.8-.13-1.884-1.09-2.529-0.11-0.1.22,0.22,0.45,0.436,0.51a7.352,7.352,0,0,0,4.416-.64,0.388,0.388,0,0,0,.206-0.59c-1.471-1.16-3.69-.69-5.419-1.08a1.014,1.014,0,0,1-.619-0.59,1.761,1.761,0,0,1,.232-1.24C889.668,1263.4,892.129,1263.29,894.314,1263.66Zm-10.014,4.53c-1.753,3.2-5.673,4.11-8.873,3.71-0.8-.1-1.349-0.23-1.81-0.31a1.04,1.04,0,0,1-.49,1.01,1.589,1.589,0,0,1-.955,0,2.944,2.944,0,0,1-.568-1.73,11.845,11.845,0,0,1-1.342-.75c-1.316-.85-3.231-2.3-3.535-3.5-0.228-1.35,2.441-2.21,3.121-2.37s1.833-.39,1.833-0.39c0.074-.66.15-1.44,0.232-2.16a2.76,2.76,0,0,1,.517-1.6,1.2,1.2,0,0,1,.959,1.07,17.361,17.361,0,0,1,.179,2.52c2.117,0.05,4.28.05,5.855,1.39a1.369,1.369,0,0,1,.44,1.39,2.042,2.042,0,0,1-1.446,1.21c-0.42.03-1.049-.16-0.878-0.36,0.309-.29,1.135-0.85.852-1.03a12.607,12.607,0,0,0-4.842-.93c0.03,1.05.061,3.09,0.042,4.74a5.058,5.058,0,0,0,1.7.31c2.787,0.03,6.363-.38,7.276-3.02,0.7-2.73-1.316-4.99-3.432-6.51a19.493,19.493,0,0,0-14.14-3.71,2.151,2.151,0,0,0-.568.2,1.949,1.949,0,0,1,.981.47,0.506,0.506,0,0,1-.388.25,1.612,1.612,0,0,1-1.394-.33,1.875,1.875,0,0,1,1.085-1.55c5.264-1.51,10.674.34,14.863,2.97a19.66,19.66,0,0,1,1.723,1.32C883.217,1262.15,885.771,1265.13,884.3,1268.19Zm0.31-5.36a1.167,1.167,0,0,1-.335-1.23,1.746,1.746,0,0,1-.491-1.68,4.785,4.785,0,0,1,3.82-2.86,2.13,2.13,0,0,1,2.037.75,1.366,1.366,0,0,1,1.214.75c0.413,1.18-.62,2.06-1.47,2.78a3.983,3.983,0,0,1-3.924.95C885.208,1262.51,885.1,1263.09,884.61,1262.83Zm2.529,7.78a0.932,0.932,0,0,1-.929.21c-0.774-.16-0.68-1-0.7-1.62a29.1,29.1,0,0,1,.283-4.95,0.659,0.659,0,0,1,.439-0.62,1.126,1.126,0,0,1,.7.83A41.056,41.056,0,0,1,887.139,1270.61Zm49.337,48.9c0,0.96-.207,1.18-1.16,1.18-4.252.01-8.5,0-12.756,0.01a2.286,2.286,0,0,1-1.713-.74q-3.934-3.96-7.9-7.9c-0.808-.81-1.1-0.81-1.891-0.02-2.635,2.63-5.277,5.26-7.9,7.9a2.4,2.4,0,0,1-1.828.76c-4.191-.01-7.174-0.01-11.365-0.01-1.063,0-1.248-.19-1.249-1.27,0-2.11,0-3.02,0-5.13,0-2.09.021-4.19-.012-6.28a2.261,2.261,0,0,1,.732-1.76q3.872-3.825,7.712-7.67c0.157-.15.319-0.31,0.463-0.47a0.87,0.87,0,0,0-.027-1.38c-0.614-.64-1.25-1.25-1.877-1.88-2.081-2.08-4.154-4.16-6.248-6.22a2.37,2.37,0,0,1-.756-1.82c0.027-4.22.012-7.24,0.014-11.46,0-.98.192-1.17,1.166-1.17,4.031,0,6.852.01,10.882-.01a2.409,2.409,0,0,1,1.877.77q4.193,4.215,8.417,8.41c0.8,0.8,1.067.8,1.885-.02,2.765-2.76,5.54-5.51,8.284-8.29a2.736,2.736,0,0,1,2.139-.88c3.97,0.04,7.94.02,11.909,0.02,1.013,0,1.2.18,1.2,1.19,0,4.23-.013,7.24.013,11.47a2.3,2.3,0,0,1-.733,1.76q-3.927,3.9-7.828,7.81c-0.9.9-.9,1.13-0.018,2.02,2.594,2.59,5.18,5.18,7.787,7.76a2.388,2.388,0,0,1,.793,1.86C936.462,1312.27,936.478,1315.29,936.476,1319.51Zm46.067-9.41a2.216,2.216,0,0,1-.723,1.7c-2.932,2.91-5.245,5.22-8.155,8.15a2.183,2.183,0,0,1-1.652.71c-10.7-.02-20.19-0.01-30.889-0.01-1.041,0-1.219-.18-1.219-1.24,0-7.74,0-14.28,0-22.02,0-7.69,0-14.16,0-21.84,0-1.2.175-1.37,1.352-1.37,10.6,0,19.989,0,30.587-.02a2.46,2.46,0,0,1,1.872.79c2.9,2.91,5.2,5.21,8.114,8.1a2.232,2.232,0,0,1,.714,1.71C982.527,1293.61,982.527,1301.25,982.543,1310.1Z" transform="translate(-861.563 -1254)"/>
</svg>
