<svg
    xmlns="http://www.w3.org/2000/svg"
    xmlns:xlink="http://www.w3.org/1999/xlink"
    width="184px" height="70px">
    <path fill-rule="evenodd"  fill="rgb(255, 75, 100)"
          d="M174.040,57.075 C174.040,58.844 174.040,69.454 174.040,69.454 L159.664,69.454 L159.664,39.946 L173.664,39.946 C173.664,39.946 173.664,40.082 173.664,43.735 C176.429,40.420 177.761,39.251 184.000,39.289 C184.000,42.419 184.000,47.204 184.000,52.968 C176.857,49.840 174.040,55.306 174.040,57.075 ZM141.113,70.000 C131.243,70.000 123.354,64.348 123.241,54.644 C123.128,44.941 131.243,39.289 141.113,39.289 C150.983,39.289 159.098,44.866 158.985,54.644 C158.872,64.423 150.983,70.000 141.113,70.000 ZM141.151,50.437 C138.944,50.437 137.129,51.986 137.154,54.644 C137.179,57.303 138.944,58.852 141.151,58.852 C143.358,58.852 145.122,57.324 145.147,54.644 C145.172,51.966 143.358,50.437 141.151,50.437 ZM123.465,29.279 C122.750,29.279 122.079,29.095 121.494,28.772 C121.876,29.588 122.090,30.497 122.090,31.458 C122.090,34.969 119.242,37.815 115.729,37.815 C112.216,37.815 109.368,34.969 109.368,31.458 C109.368,29.778 110.021,28.252 111.085,27.116 C110.872,27.151 110.655,27.173 110.432,27.173 C108.179,27.173 106.352,25.347 106.352,23.094 C106.352,20.842 108.179,19.016 110.432,19.016 C112.687,19.016 114.514,20.842 114.514,23.094 C114.514,23.950 114.249,24.744 113.798,25.400 C114.407,25.206 115.056,25.101 115.729,25.101 C117.168,25.101 118.494,25.579 119.560,26.383 C119.447,26.009 119.384,25.612 119.384,25.201 C119.384,22.948 121.211,21.122 123.465,21.122 C125.719,21.122 127.546,22.948 127.546,25.201 C127.546,27.453 125.719,29.279 123.465,29.279 ZM93.989,33.879 C93.539,33.893 93.052,33.836 92.560,33.712 C91.616,36.062 90.762,38.753 90.129,41.732 C91.448,40.633 94.018,39.117 98.130,39.214 C106.613,39.413 107.375,49.425 107.375,49.425 L107.375,69.454 L93.139,69.454 C93.139,69.454 93.139,61.077 93.139,56.284 C93.139,51.490 87.874,52.553 88.254,56.057 L88.254,69.454 L73.972,69.454 L73.972,39.946 L86.195,39.946 C86.531,37.313 87.625,34.218 89.128,31.256 C88.649,30.500 88.362,29.572 88.328,28.467 C88.159,22.778 93.061,18.631 93.568,18.616 C93.929,18.605 94.081,20.260 93.212,21.652 C91.973,23.634 90.520,26.468 90.767,28.310 C93.529,23.772 96.969,20.157 99.361,20.087 C100.997,20.038 101.973,21.847 102.049,24.398 C102.192,29.229 97.788,33.767 93.989,33.879 ZM99.675,23.063 C98.845,23.087 96.486,25.636 94.198,30.107 C99.896,29.523 101.113,23.020 99.675,23.063 ZM86.460,22.600 C85.388,22.632 83.653,22.812 81.989,22.873 L81.264,24.804 C82.883,24.723 84.399,24.662 84.399,24.662 C85.254,24.636 86.010,24.493 85.934,25.605 C85.859,26.716 85.812,27.163 84.920,27.190 L80.345,27.325 C80.194,27.834 79.803,29.144 79.627,29.698 C79.406,30.391 80.101,30.238 80.998,29.982 C81.895,29.726 84.330,29.268 85.330,29.239 C86.331,29.209 87.078,30.802 86.503,31.349 C85.929,31.897 82.834,34.508 79.604,34.604 C78.218,34.645 76.336,33.435 76.272,31.268 C76.238,30.120 76.699,28.580 77.141,27.384 C77.033,27.316 76.951,27.158 76.887,26.814 C76.744,26.034 76.393,25.177 77.691,25.030 C77.795,25.018 77.926,25.006 78.078,24.993 L79.150,22.786 C78.715,22.722 78.339,22.626 78.050,22.488 C77.261,22.111 76.646,21.143 76.634,20.709 C76.605,19.758 83.585,19.189 85.200,19.142 C86.935,19.090 87.428,19.425 87.982,20.216 C88.536,21.007 88.745,21.568 88.752,21.784 C88.758,22.001 88.558,22.537 86.460,22.600 ZM72.557,32.885 C70.134,32.956 67.374,25.312 66.747,25.331 C66.410,25.340 66.381,30.066 66.291,31.492 C66.201,32.916 65.705,33.678 64.909,33.702 C63.704,33.738 63.175,32.584 63.107,30.308 C63.040,28.032 63.787,20.295 66.016,20.229 C67.824,20.175 71.614,28.368 72.253,28.349 C72.892,28.330 72.417,26.435 72.013,24.342 C71.100,19.608 69.677,17.167 71.015,17.128 C72.003,17.098 75.244,20.232 75.425,26.303 C75.508,29.120 75.112,32.809 72.557,32.885 ZM61.257,22.034 C59.573,22.205 51.080,22.565 51.111,23.613 C51.128,24.167 53.680,24.290 56.021,24.432 C58.426,24.577 62.289,24.667 62.404,28.557 C62.495,31.628 61.332,32.278 60.809,32.522 C60.145,32.833 57.912,33.681 56.201,33.732 C51.043,33.885 48.916,30.923 48.871,29.417 C48.832,28.080 50.208,26.894 52.522,26.825 C54.836,26.757 58.419,27.591 58.447,28.542 C58.470,29.313 56.890,29.709 56.191,29.730 C53.033,29.824 53.188,28.542 51.368,28.595 C50.332,28.626 48.877,30.827 54.071,30.673 C58.699,30.536 60.102,29.012 60.077,28.192 C60.045,27.108 56.724,26.580 54.803,26.481 C52.882,26.381 50.000,26.394 49.016,25.772 C48.033,25.151 48.171,23.744 48.511,22.581 C49.223,20.149 54.204,19.302 56.879,19.223 C59.555,19.143 62.907,19.490 62.932,20.345 C62.947,20.845 62.685,21.889 61.257,22.034 ZM46.580,10.939 C45.954,10.957 45.164,10.802 44.372,10.496 C43.908,11.226 43.579,11.676 43.097,11.691 C42.528,11.708 41.787,10.408 41.772,9.915 C41.766,9.738 41.784,9.429 41.954,8.965 C41.300,8.304 40.856,7.497 40.828,6.576 C40.744,3.741 44.483,0.143 49.343,-0.001 C51.574,-0.067 52.199,0.872 52.385,1.337 C54.359,1.306 55.177,2.525 55.214,3.785 C55.296,6.523 51.150,10.803 46.580,10.939 ZM42.967,6.262 C42.975,6.546 43.041,6.729 43.110,6.844 C43.492,6.280 44.012,5.634 44.666,4.900 C45.361,4.119 46.063,3.510 46.758,3.034 C44.031,3.231 42.948,5.635 42.967,6.262 ZM53.106,4.474 C53.088,3.872 52.855,3.326 51.973,3.353 C48.967,3.442 46.050,7.345 45.487,8.139 C46.053,8.232 46.761,8.295 47.601,8.270 C51.432,8.157 53.134,5.413 53.106,4.474 ZM38.736,32.370 C38.736,38.120 38.736,55.061 38.736,56.943 C38.736,59.214 36.622,69.996 23.843,69.949 C14.400,69.996 9.279,64.737 9.279,64.737 L16.045,52.389 C16.045,52.389 16.514,55.299 20.367,55.299 C24.219,55.299 23.844,52.353 23.844,52.078 C23.844,51.846 23.844,40.356 23.843,36.210 C22.515,36.070 21.241,35.840 20.037,35.524 C19.989,36.968 20.096,37.733 18.048,37.794 C16.795,37.831 16.306,35.802 16.122,34.152 C10.131,31.495 6.521,27.179 6.470,25.476 C6.395,22.940 11.010,20.824 16.407,19.987 C16.483,17.887 16.838,12.540 17.948,12.508 C18.393,12.494 19.317,13.527 19.665,15.108 C19.982,16.545 20.015,19.164 20.019,19.630 L20.426,19.615 C27.999,19.391 32.538,21.757 32.621,24.560 C32.685,26.733 30.761,27.845 29.751,27.875 C28.742,27.905 27.559,27.331 27.549,27.018 C27.531,26.420 29.704,26.280 29.675,25.314 C29.632,23.855 23.611,23.216 19.901,23.193 C19.896,24.450 19.879,25.966 19.910,26.986 C19.939,27.965 20.000,30.496 20.030,32.607 C21.713,32.963 23.447,33.155 25.146,33.104 C29.146,32.986 38.281,31.528 38.077,24.669 C37.793,15.087 18.835,6.284 8.680,6.585 C4.681,6.705 2.281,7.133 2.292,7.525 C2.300,7.787 4.240,7.888 4.255,8.405 C4.271,8.922 3.153,8.993 2.469,9.013 C1.219,9.050 0.276,8.505 0.253,7.742 C0.237,7.184 1.458,5.443 2.203,5.161 C2.713,4.968 5.193,4.027 9.327,3.904 C10.859,3.859 13.461,4.047 15.658,4.372 C28.447,6.266 41.872,16.013 42.129,24.656 C42.213,27.497 41.059,30.247 38.736,32.370 ZM7.754,25.654 C7.795,27.044 11.374,29.715 16.073,31.455 C16.291,28.610 16.345,25.595 16.366,23.339 C12.570,23.621 7.715,24.325 7.754,25.654 ZM45.444,34.136 C44.322,34.169 43.799,33.501 43.703,32.513 C43.608,31.525 43.525,28.722 43.574,27.317 C43.623,25.913 43.689,23.226 43.872,21.543 C44.055,19.860 44.506,19.501 45.025,19.486 C45.678,19.466 46.615,21.033 46.644,22.012 C46.673,22.992 46.908,28.111 46.976,29.585 C47.045,31.060 46.996,32.473 46.900,33.127 C46.804,33.780 46.567,34.103 45.444,34.136 ZM53.958,55.304 C53.958,57.724 58.844,58.402 58.844,54.747 C58.844,50.836 58.844,39.946 58.844,39.946 L73.019,39.946 C73.019,39.946 73.019,56.954 73.019,57.565 C73.019,58.176 72.076,69.936 56.542,69.949 C41.008,69.962 39.764,58.763 39.764,57.753 C39.764,56.744 39.764,39.946 39.764,39.946 L53.958,39.946 C53.958,39.946 53.958,53.261 53.958,55.304 ZM122.596,47.618 L122.596,69.454 L108.314,69.454 L108.314,47.618 L108.314,39.946 L122.596,39.946 L122.596,47.618 Z"/>
</svg>