<svg xmlns="http://www.w3.org/2000/svg" width="161.25" height="70" viewBox="0 0 161.25 70">
  <metadata><?xpacket begin="﻿" id="W5M0MpCehiHzreSzNTczkc9d"?>
<x:xmpmeta xmlns:x="adobe:ns:meta/" x:xmptk="Adobe XMP Core 5.6-c138 79.159824, 2016/09/14-01:09:01        ">
   <rdf:RDF xmlns:rdf="http://www.w3.org/1999/02/22-rdf-syntax-ns#">
      <rdf:Description rdf:about=""/>
   </rdf:RDF>
</x:xmpmeta>
                                                                                                    
                                                                                                    
                                                                                                    
                                                                                                    
                                                                                                    
                                                                                                    
                                                                                                    
                                                                                                    
                                                                                                    
                                                                                                    
                                                                                                    
                                                                                                    
                                                                                                    
                                                                                                    
                                                                                                    
                                                                                                    
                                                                                                    
                                                                                                    
                                                                                                    
                                                                                                    
                           
<?xpacket end="w"?></metadata>
<defs>
    <style>
      .cls-1 {
        fill: #ffca2a;
        fill-rule: evenodd;
      }
    </style>
  </defs>
  <path class="cls-1" d="M1163.28,1267.84c-3.41.56-5.56,2.55-5.03,4.13a20.065,20.065,0,0,1,5.03-4.13m-58.76,21.99c0.01,1.47,5.42,5.93,13.39,8.73-0.01-3.46.03-8.62,0.08-12.22-6.47.32-13.47,1.19-13.47,3.49m56.2-15.81a7.9,7.9,0,0,0,2.28.31c2.16-.01,7.19-2.01,7.18-4.44a1.434,1.434,0,0,0-1.56-1.45c-2.04.01-6.18,3.65-7.9,5.58m73.48,28.41c-0.65,2.71-2.51,9.05-3.67,12.53-0.83,2.42-.97,5.98-1.6,6.12-1.65.36-4.41-2.31-4.46-5.03-0.1-5.26,2.84-13.93,4.05-17.83a10.2,10.2,0,0,1-1.11-4.44c-0.02-5.82,5.36-12.05,7.04-13.43,0.87-.7,1.66,1.26.96,2.74-0.67,1.42-4.25,7.09-4.24,8.99a3.251,3.251,0,0,0,.35,1.31c3.53-4.49,9.57-11.13,12.71-11.32,1.13-.06,4.7,1.39,4.72,7.4s-7.46,13.47-14.75,12.96m-19.32.74c-3.65.12-4.96-3.84-4.97-5.62,0-1.15,1.11-3.92,1.48-5.28,0.11-.45-0.5-1.02-0.47-1.4,0.16-1.6,2.48-1.77,2.68-2.35a9.735,9.735,0,0,0,.61-2.68c-0.08-.44-3.34-1.1-3.34-2.74-0.01-1.75,6.96-1.72,12.33-2.3,3.13-.35,5.67,2.57,5.46,3.28a2.094,2.094,0,0,1-1.65,1.36c-0.51.12-7.21,0.3-8.21,0.72-0.5.2-.81,2.24-0.57,2.64s4.67,0.41,5.37.48c1.4,0.11,1.83,3.16-.44,3.29-0.8.04-5.66-.03-6.44,0.22s-1.56,3.84-1.16,4.2c0.42,0.37,6.66-1.01,7.77-1.01s2.68,1.24,2.57,2.3c-0.08.7-5.25,4.7-11.02,4.89m-4.53,2.68a1.08,1.08,0,0,1,1.09,1.06c0,0.28.12,6.71,0.14,7.81,0.03-.01.07-0.01,0.12-0.02a30.194,30.194,0,0,1,7.79-.38,1.076,1.076,0,0,1-.22,2.14,27.131,27.131,0,0,0-7.21.37c-1.37.24-2.64-.34-2.64-1.98,0-.4-0.1-5.34-0.14-7.91a1.082,1.082,0,0,1,1.07-1.09m-3.2,9.74c-1.08.72-3.41,0.5-5.74,0.72a2.89,2.89,0,0,1-2.33-.51,9.924,9.924,0,0,1-.75-3.35,1.261,1.261,0,0,1-.04-0.28v-0.04c-0.23-1.95-.36-3.95-0.36-3.98a1.416,1.416,0,0,1,.42-1.03c0.54-.52,1.3-0.53,2.6-0.51,1.33,0.03,4.41-.16,4.81-0.2a1.086,1.086,0,0,1,1.2.71,1.072,1.072,0,0,1-.67,1.37c-0.41.14-4.51,0.29-5.37,0.28-0.16-.01-0.49-0.01-0.78-0.01,0.04,0.56.06,0.8,0.16,1.69a48.157,48.157,0,0,0,4.97-.39,0.992,0.992,0,0,1,1.04.99,1.039,1.039,0,0,1-.89,1.04,33.647,33.647,0,0,1-4.87.44c0.06,0.41.18,1.44,0.23,1.7a22.939,22.939,0,0,0,5.32-.61,1.132,1.132,0,0,1,1.38.38,1.246,1.246,0,0,1-.33,1.59m-11.27.78c-1.05.47-2.11-.47-3.91-2.19l-0.16-.15c-0.47-.45-1.19-1.21-1.95-2.01-0.28-.29-0.6-0.63-0.92-0.96,0.07,1.38.19,3.19,0.32,4.89a1.076,1.076,0,0,1-1,1.15h-0.08a1.072,1.072,0,0,1-1.08-.99s-0.14-1.85-.25-3.71c-0.23-3.85-.27-4.55.72-4.84,0.81-.25,1.1.06,3.86,2.98,0.71,0.75,1.45,1.53,1.87,1.93l0.16,0.16c0.23,0.22.58,0.54,0.92,0.85-0.17-1.9-.49-4.91-0.68-6.66a1.081,1.081,0,1,1,2.15-.23c0.03,0.29.76,7.05,0.81,8.34a1.4,1.4,0,0,1-.78,1.44m-18.96,1.31a1.085,1.085,0,0,1-1.2-.71,30.633,30.633,0,0,1-.13-4.69c-0.02-4.74.07-5.07,0.85-5.38,0.87-.36,1.4.32,2.21,1.36,0.52,0.66,1.18,1.53,1.87,2.46,0.63,0.85,1.46,1.94,2.11,2.77,0.03-1.79.28-7.12,0.34-7.62a1.083,1.083,0,0,1,2.15.27c-0.05.36-.3,4.62-0.32,6.43-0.02,1.85-.03,3.37-0.91,3.9a1.371,1.371,0,0,1-1.36.04c-0.51-.26-1.14-1.01-3.75-4.5-0.31-.43-0.68-0.91-1.03-1.38-0.02,2.26.04,5.33,0.07,5.88a1.069,1.069,0,0,1-.9,1.17m-12-.35a1.07,1.07,0,0,1-.93-1.3c0.13-.57.26-1.09,0.39-1.6a1.072,1.072,0,0,1-.33-2.07c0.06-.02.41-0.15,0.94-0.36,1.76-6.66,2.4-6.7,3.12-6.72,0.58-.02,1.12-0.03,3.62,4.48a1.076,1.076,0,0,1,.98.8,1.033,1.033,0,0,1-.11.81c0.58,1.1,1.25,2.38,2.01,3.91a1.082,1.082,0,0,1-1.94.96c-0.66-1.3-1.37-2.69-2.06-3.97-1.19.39-2.64,0.91-3.79,1.35-0.26.96-.5,1.95-0.72,2.9a1.063,1.063,0,0,1-1.18.81m-4.89-24.18c0.08-3.33.14-12.46,2.41-12.48,1.78,0,2.6,2.33,2.89,14.4,0.15,6.37-.47,6.58-2.29,6.59-2.03.01-3.17-.9-3.01-8.51m1.45,18.26,0.2,4.59a1.062,1.062,0,0,1-1.03,1.12h-0.05a1.077,1.077,0,0,1-1.08-1.02l-0.18-4.1c-0.95.27-2.05,0.59-3.15,0.92v2.65a1.08,1.08,0,0,1-2.16,0v-2.01c-0.1.04-.21,0.07-0.31,0.1a1.1,1.1,0,0,1-.31.04,1.059,1.059,0,0,1-1.03-.76,1.074,1.074,0,0,1,.72-1.35c0.19-.05.52-0.15,0.93-0.28v-3.96a1.08,1.08,0,0,1,2.16,0v3.32c1.02-.3,2.11-0.62,3.05-0.88l-0.15-3.4a1.081,1.081,0,0,1,2.16-.09l0.13,2.92a1.223,1.223,0,0,1,.17-0.03,1.05,1.05,0,0,1,1.23.9,1.231,1.231,0,0,1-1.3,1.32m-19.59,4.83c-1.42,0-3.45-.73-3.98-2.29q-0.63-1.935,1.86-4.01c3.73-3.12,5.93-3.66,7.42-3.78a2.339,2.339,0,0,1,2.68,1.63,1.08,1.08,0,0,1-2.08.57,0.78,0.78,0,0,0-.43-0.05c-1.18.09-2.94,0.55-6.21,3.28-1.07.9-1.25,1.48-1.18,1.67a2.255,2.255,0,0,0,1.73.82,52.625,52.625,0,0,0,9.04-.69,1.072,1.072,0,1,1,.69,2.03c-1.57.54-7.37,0.82-9.54,0.82m-18.26-35.36c14.86,0,19.28,4.1,19.29,7.6,0.01,2.64-3,4.31-3.26,4.28-1.49-.1-3.2.03-3.21-0.72,0-1.01,1.85-1.74,1.85-2.8-0.01-1.24-6.99-3.12-12.32-3.1-0.66,0-1.44.01-2.27,0.02,0.08,4.21.27,10.89,0.38,14.07a38.673,38.673,0,0,0,7.39.71c7.19-.02,20.23-2.26,20.2-12.24-0.04-12.85-25.31-27.99-47.25-27.93-2.55.01-7.67,0.23-7.67,1.18,0,0.82,1.32.65,1.32,1.47,0.01,0.58-.9.66-1.9,0.66s-2.63-.11-2.6-1.51c0-1.46,1.56-3.25,3.26-4,1.99-.84,6.24-1.37,11.3-1.51,23.2-.65,49.86,18.28,49.89,31.45,0.03,9.82-10.77,16.99-24.22,17.03a38.524,38.524,0,0,1-9.7-1.2c-0.2,1.48-.86,2.88-2.77,2.88-2.64.02-3.21-2.02-3.37-4.98-9.27-4.01-15.01-10.61-15.01-13.22,0-3.21,7.13-6.46,15.14-7.66,0.16-3.77.7-10.59,2.56-10.6,2.23-.01,2.83,6.19,2.97,10.12m37.12-15.15a4.173,4.173,0,0,1-2.42-2.31,3.6,3.6,0,0,1,.55-3.52,4.775,4.775,0,0,1,6.19-.94,3.893,3.893,0,0,1,1.82,3.01,3.76,3.76,0,0,1-1.03,2.68,5.858,5.858,0,0,1,3.81,1.79c0.02,0,.04.01,0.06,0.01a3.577,3.577,0,0,1,.47-1.69,4.136,4.136,0,0,1,3.13-2.05,4.985,4.985,0,0,1,4.12,1.61,4.48,4.48,0,0,1,1.22,2.85,4.042,4.042,0,0,1-1.34,3.31,4.334,4.334,0,0,1-3.57.93,3.92,3.92,0,0,1-1.52-.48c-1.43,3.18-6.35,6.4-9.65,6.34-5.63-.1-7.03-3.34-7.04-5.21,0-1.83,1.94-4.75,5.2-6.33m19.76,15.02c3.07-.01,8.5-0.04,8.51,2.08,0.01,3.53-17.47,1.61-17.49,4.21-0.02.78,3.78,0.96,7.31,1.25,4.71,0.4,10.11,1.04,10.12,6.72,0.01,2.35-2.01,6.88-10.02,6.9-8.12.02-11.02-4.13-11.02-5.89-0.02-3.41,3.25-4.33,5.52-4.35,2.15,0,9.14.84,9.15,2.56,0.01,0.94-1.75,1.87-3.86,1.88s-5.17-1.87-6.65-1.87a1.926,1.926,0,0,0-2.14,1.57c0,0.57.08,1.73,4.05,1.72,1.93-.02,11.27-1.05,11.26-3.62,0-1.15-4.29-2.29-7.82-2.66-4.33-.43-10.85.64-10.86-3.75-0.02-6.46,11.64-6.74,13.94-6.75m13.5,1.69c2.68,0.2,9.12,11.91,9.86,11.7,0.48-.13.53-1.24,0.53-1.85-0.01-2.97-3.08-10.7-3.1-12.92,0-.73.13-1.43,0.79-1.43,2.63-.01,7.16,8.31,7.19,15.11,0,2.97-1.83,7.54-4.97,7.54-2.89.02-8.09-10.66-9.04-10.66-1.27,0,.37,11.69-2.82,11.69-2.14.01-2.64-1.92-2.65-4.8s1.45-14.58,4.21-14.38m57.53,3.82c-1.12-5.74-6.63-8.47-9.13-9.11a13.156,13.156,0,0,0-8.4.62,16.618,16.618,0,0,0-4.01,2.44,9.838,9.838,0,0,0-6.34-2.49c-2.44.11-12.44,1.27-15.01,2.63-1.41-2.48-3.62-5.25-6.29-5.45a3.621,3.621,0,0,0-3.23,1.43c-1.05,1.42-.97,3.35-0.64,5.47-3.82-3.81-12.39-4.06-17.84-4.1-5.19-.03-11.96,1.3-13.87,2.34a24.334,24.334,0,0,0,7.05-5.92,6.906,6.906,0,0,0,6.38-2.82,7.084,7.084,0,0,0,.36-7.22,7.729,7.729,0,0,0-4.75-3.84,7.114,7.114,0,0,0-6.36,1.25,6.664,6.664,0,0,0-4.2-5.34,7.445,7.445,0,0,0-7.24.98,6.534,6.534,0,0,0-2.31,3.37,6.169,6.169,0,0,0,.58,4.68l-0.02.02c-2.03,1.8-3.85,4.49-3.66,7.32a65.2,65.2,0,0,0-15.79-11.29c-5.36-2.75-15.6-6.98-26.16-7.22-3.11-.07-10.02.22-13.16,1.16-6.71,2-7.37,6.86-6.65,8.97,0.81,2.36,3.59,3.29,7.15,2.68a3.8,3.8,0,0,0,3-3.04,54.444,54.444,0,0,1,16.87,1.66,52.649,52.649,0,0,0-2.64,13.32,41.647,41.647,0,0,0-9.04,2.91c-2.38,1.17-5,2.84-5.93,5.46-0.99,2.8.66,5.56,2.39,7.67a39.631,39.631,0,0,0,12.47,9.35c0.25,1.51.94,4.65,4.16,5.68a5.86,5.86,0,0,0,6.67-2.12,47.7,47.7,0,0,0,8.09.74l0.01,3.18a7.183,7.183,0,0,0,7.17,7.17h80.83c1.02,2.11,3.08,4.62,5.45,5.08,4.25,0.84,4.75-3.1,4.98-4.34a28.276,28.276,0,0,1,.85-3.86l3.11-10.38a19.646,19.646,0,0,0,8-3.29,20,20,0,0,0,5.39-5.83,13.311,13.311,0,0,0,1.71-9.92m-84.03,24.8c0.68-.25,1.39-0.5,2.05-0.71-0.46-.81-0.86-1.52-1.2-2.06-0.25.71-.54,1.68-0.85,2.77m77.06-24.7c-1.42-.03-5.27,6.03-7.9,10.58,3.87,0.07,9.28-3.63,9.27-8.09-0.01-1.5-.38-2.48-1.37-2.49" transform="translate(-1090.63 -1254)"/>
</svg>
