<svg xmlns="http://www.w3.org/2000/svg" width="56.82" height="38.09" viewBox="0 0 56.82 38.09">
  <metadata><?xpacket begin="﻿" id="W5M0MpCehiHzreSzNTczkc9d"?>
<x:xmpmeta xmlns:x="adobe:ns:meta/" x:xmptk="Adobe XMP Core 5.6-c138 79.159824, 2016/09/14-01:09:01        ">
   <rdf:RDF xmlns:rdf="http://www.w3.org/1999/02/22-rdf-syntax-ns#">
      <rdf:Description rdf:about=""/>
   </rdf:RDF>
</x:xmpmeta>
                                                                                                    
                                                                                                    
                                                                                                    
                                                                                                    
                                                                                                    
                                                                                                    
                                                                                                    
                                                                                                    
                                                                                                    
                                                                                                    
                                                                                                    
                                                                                                    
                                                                                                    
                                                                                                    
                                                                                                    
                                                                                                    
                                                                                                    
                                                                                                    
                                                                                                    
                                                                                                    
                           
<?xpacket end="w"?></metadata>
<defs>
    <style>
      .cls-1 {
        fill: #605e58;
        fill-rule: evenodd;
      }
    </style>
  </defs>
  <path id="icon" class="cls-1" d="M1423.75,2985.3a0.985,0.985,0,0,1-.72-0.27c-6.55-6.18-16.52-6.22-22.21-.08a0.988,0.988,0,0,1-1.41.05,1.008,1.008,0,0,1-.04-1.42c6.44-6.94,17.66-6.95,25.02-.01a1,1,0,0,1,.05,1.41A0.971,0.971,0,0,1,1423.75,2985.3Zm7.27-6.47a0.977,0.977,0,0,1-.71-0.27,28.152,28.152,0,0,0-19.29-7.86,24.379,24.379,0,0,0-18.15,7.75,0.988,0.988,0,0,1-1.41.05,1.008,1.008,0,0,1-.04-1.42,26.348,26.348,0,0,1,19.6-8.39,30.206,30.206,0,0,1,20.65,8.4A1.006,1.006,0,0,1,1431.02,2978.83Zm7.89-6.48a1.031,1.031,0,0,1-.71-0.28c-15.74-14.84-39.7-14.9-53.4-.12a1,1,0,0,1-1.46-1.37c14.46-15.58,39.68-15.57,56.22.03a1.008,1.008,0,0,1,.04,1.42A0.993,0.993,0,0,1,1438.91,2972.35Zm-27.92,24.64a5.265,5.265,0,1,1,5.22-5.26A5.245,5.245,0,0,1,1410.99,2996.99Zm0-8.52a3.26,3.26,0,1,0,3.23,3.26A3.248,3.248,0,0,0,1410.99,2988.47Z" transform="translate(-1383.06 -2958.91)"/>
</svg>
