<svg id="Группа_1" data-name="Группа 1" xmlns="http://www.w3.org/2000/svg" width="42" height="47" viewBox="0 0 42 47">
  <metadata><?xpacket begin="﻿" id="W5M0MpCehiHzreSzNTczkc9d"?>
<x:xmpmeta xmlns:x="adobe:ns:meta/" x:xmptk="Adobe XMP Core 5.6-c138 79.159824, 2016/09/14-01:09:01        ">
   <rdf:RDF xmlns:rdf="http://www.w3.org/1999/02/22-rdf-syntax-ns#">
      <rdf:Description rdf:about=""/>
   </rdf:RDF>
</x:xmpmeta>
                                                                                                    
                                                                                                    
                                                                                                    
                                                                                                    
                                                                                                    
                                                                                                    
                                                                                                    
                                                                                                    
                                                                                                    
                                                                                                    
                                                                                                    
                                                                                                    
                                                                                                    
                                                                                                    
                                                                                                    
                                                                                                    
                                                                                                    
                                                                                                    
                                                                                                    
                                                                                                    
                           
<?xpacket end="w"?></metadata>
<defs>
    <style>
      .cls-1 {
        fill: #fff;
        fill-rule: evenodd;
      }
    </style>
  </defs>
  <path id="Ellipse_3_copy" data-name="Ellipse 3 copy" class="cls-1" d="M1278,58a21,21,0,1,1-21,21A21,21,0,0,1,1278,58Zm0,2a19,19,0,1,1-19,19A19,19,0,0,1,1278,60Z" transform="translate(-1257 -58)"/>
  <path id="Ellipse_3_copy_2" data-name="Ellipse 3 copy 2" class="cls-1" d="M1278,71a8,8,0,1,1-8,8A8,8,0,0,1,1278,71Zm0,2a6,6,0,1,1-6,6A6,6,0,0,1,1278,73Z" transform="translate(-1257 -58)"/>
  <path class="cls-1" d="M1278,83a11,11,0,1,1-11,11A11,11,0,0,1,1278,83Zm0,2a9,9,0,1,1-9,9A9,9,0,0,1,1278,85Zm-4-4h8v8h-8V81Zm-7,15h22v9h-22V96Z" transform="translate(-1257 -58)"/>
</svg>
