<svg
    xmlns="http://www.w3.org/2000/svg"
    xmlns:xlink="http://www.w3.org/1999/xlink"
    width="20px" height="18px">
    <path fill-rule="evenodd"  fill="rgb(229, 226, 219)"
          d="M16.319,9.237 C16.540,9.899 16.687,10.593 16.687,11.328 C16.687,15.013 13.693,18.000 10.000,18.000 C6.307,18.000 3.312,15.013 3.312,11.328 C3.312,10.593 3.460,9.899 3.681,9.237 C1.578,8.787 -0.000,6.916 -0.000,4.672 C-0.000,2.092 2.085,0.000 4.656,0.000 C7.228,0.000 9.312,2.092 9.312,4.672 C9.312,4.690 9.307,4.707 9.307,4.726 C9.538,4.702 9.763,4.656 10.000,4.656 C10.237,4.656 10.462,4.702 10.693,4.726 C10.693,4.707 10.687,4.690 10.687,4.672 C10.687,2.092 12.772,0.000 15.344,0.000 C17.915,0.000 20.000,2.092 20.000,4.672 C20.000,6.916 18.422,8.787 16.319,9.237 Z"/>
</svg>