<svg xmlns="http://www.w3.org/2000/svg" width="56" height="56" viewBox="0 0 56 56">
  <metadata><?xpacket begin="﻿" id="W5M0MpCehiHzreSzNTczkc9d"?>
<x:xmpmeta xmlns:x="adobe:ns:meta/" x:xmptk="Adobe XMP Core 5.6-c138 79.159824, 2016/09/14-01:09:01        ">
   <rdf:RDF xmlns:rdf="http://www.w3.org/1999/02/22-rdf-syntax-ns#">
      <rdf:Description rdf:about=""/>
   </rdf:RDF>
</x:xmpmeta>
                                                                                                    
                                                                                                    
                                                                                                    
                                                                                                    
                                                                                                    
                                                                                                    
                                                                                                    
                                                                                                    
                                                                                                    
                                                                                                    
                                                                                                    
                                                                                                    
                                                                                                    
                                                                                                    
                                                                                                    
                                                                                                    
                                                                                                    
                                                                                                    
                                                                                                    
                                                                                                    
                           
<?xpacket end="w"?></metadata>
<defs>
    <style>
      .cls-1 {
        fill: #ffca2a;
        fill-rule: evenodd;
      }
    </style>
  </defs>
  <path id="icon" class="cls-1" d="M884,2963.79a3.44,3.44,0,0,1,1,.16V2960a1,1,0,0,0-2,0v3.95A3.44,3.44,0,0,1,884,2963.79Zm0,6.17a3.44,3.44,0,0,1-1-.16V2995a1,1,0,0,0,2,0v-25.2A3.44,3.44,0,0,1,884,2969.96Zm15.875,10.13a3.029,3.029,0,0,1-.875-0.13V2995a1,1,0,0,0,2,0v-15.12A3.047,3.047,0,0,1,899.875,2980.09Zm0-6.18a3.047,3.047,0,0,1,1.125.21V2960a1,1,0,0,0-2,0v14.04A3.029,3.029,0,0,1,899.875,2973.91ZM916,2989.96a3.134,3.134,0,0,1-1-.16v5.2a1,1,0,0,0,2,0v-5.2A3.134,3.134,0,0,1,916,2989.96Zm0-6.17a3.44,3.44,0,0,1,1,.16V2960a1,1,0,0,0-2,0v23.95A3.44,3.44,0,0,1,916,2983.79ZM884.125,2971h-0.25a3.879,3.879,0,0,1-3.875-3.87v-0.25a3.881,3.881,0,0,1,3.875-3.88h0.25a3.881,3.881,0,0,1,3.875,3.88v0.25A3.879,3.879,0,0,1,884.125,2971Zm-0.25-6a1.877,1.877,0,0,0-1.875,1.88v0.25a1.875,1.875,0,0,0,1.875,1.87h0.25a1.875,1.875,0,0,0,1.875-1.87v-0.25a1.877,1.877,0,0,0-1.875-1.88h-0.25Zm16.25,16h-0.25a3.879,3.879,0,0,1-3.875-3.87v-0.25a3.881,3.881,0,0,1,3.875-3.88h0.25a3.881,3.881,0,0,1,3.875,3.88v0.25A3.879,3.879,0,0,1,900.125,2981Zm-0.25-6a1.877,1.877,0,0,0-1.875,1.88v0.25a1.875,1.875,0,0,0,1.875,1.87h0.25a1.875,1.875,0,0,0,1.875-1.87v-0.25a1.877,1.877,0,0,0-1.875-1.88h-0.25Zm16.25,16h-0.25a3.879,3.879,0,0,1-3.875-3.87v-0.25a3.881,3.881,0,0,1,3.875-3.88h0.25a3.881,3.881,0,0,1,3.875,3.88v0.25A3.879,3.879,0,0,1,916.125,2991Zm-0.25-6a1.877,1.877,0,0,0-1.875,1.88v0.25a1.875,1.875,0,0,0,1.875,1.87h0.25a1.875,1.875,0,0,0,1.875-1.87v-0.25a1.877,1.877,0,0,0-1.875-1.88h-0.25ZM928,3006H872v-56h56v56Zm-54-2h52v-52H874v52Z" transform="translate(-872 -2950)"/>
</svg>
