<svg
    xmlns="http://www.w3.org/2000/svg"
    xmlns:xlink="http://www.w3.org/1999/xlink"
    width="56px" height="56px">
    <path fill-rule="evenodd"  fill="rgb(255, 202, 42)"
          d="M0.000,56.001 L0.000,0.001 L56.000,0.001 L56.000,56.001 L0.000,56.001 ZM54.000,2.002 L2.000,2.002 L2.000,54.000 L54.000,54.000 L54.000,2.002 ZM11.000,13.109 L11.000,10.001 C11.000,9.449 11.448,9.000 12.000,9.000 C12.552,9.000 13.000,9.449 13.000,10.001 L13.000,13.109 C14.715,13.508 16.000,15.040 16.000,16.875 L16.000,17.126 C16.000,18.961 14.715,20.494 13.000,20.893 L13.000,45.001 C13.000,45.554 12.552,46.000 12.000,46.000 C11.448,46.000 11.000,45.554 11.000,45.001 L11.000,20.892 C9.285,20.494 8.000,18.961 8.000,17.126 L8.000,16.875 C8.000,15.040 9.285,13.508 11.000,13.109 ZM10.000,17.126 C10.000,18.159 10.841,19.000 11.875,19.000 L12.125,19.000 C13.159,19.000 14.000,18.159 14.000,17.126 L14.000,16.875 C14.000,15.842 13.159,15.001 12.125,15.001 L11.875,15.001 C10.841,15.001 10.000,15.842 10.000,16.875 L10.000,17.126 ZM27.000,23.108 L27.000,10.001 C27.000,9.449 27.447,9.000 28.000,9.000 C28.553,9.000 29.000,9.449 29.000,10.001 L29.000,23.108 C30.715,23.507 32.000,25.040 32.000,26.875 L32.000,27.126 C32.000,28.961 30.715,30.494 29.000,30.893 L29.000,45.001 C29.000,45.554 28.553,46.000 28.000,46.000 C27.447,46.000 27.000,45.554 27.000,45.001 L27.000,30.893 C25.285,30.494 24.000,28.961 24.000,27.126 L24.000,26.875 C24.000,25.040 25.285,23.507 27.000,23.108 ZM26.000,27.126 C26.000,28.159 26.841,29.000 27.875,29.000 L28.125,29.000 C29.159,29.000 30.000,28.159 30.000,27.126 L30.000,26.875 C30.000,25.842 29.159,25.001 28.125,25.001 L27.875,25.001 C26.841,25.001 26.000,25.842 26.000,26.875 L26.000,27.126 ZM43.000,33.109 L43.000,10.001 C43.000,9.449 43.447,9.000 44.000,9.000 C44.553,9.000 45.000,9.449 45.000,10.001 L45.000,33.109 C46.715,33.508 48.000,35.041 48.000,36.875 L48.000,37.126 C48.000,38.961 46.715,40.494 45.000,40.893 L45.000,45.001 C45.000,45.554 44.553,46.000 44.000,46.000 C43.447,46.000 43.000,45.554 43.000,45.001 L43.000,40.893 C41.285,40.494 40.000,38.961 40.000,37.126 L40.000,36.875 C40.000,35.041 41.285,33.508 43.000,33.109 ZM42.000,37.126 C42.000,38.159 42.841,39.000 43.875,39.000 L44.125,39.000 C45.159,39.000 46.000,38.159 46.000,37.126 L46.000,36.875 C46.000,35.842 45.159,35.001 44.125,35.001 L43.875,35.001 C42.841,35.001 42.000,35.842 42.000,36.875 L42.000,37.126 Z"/>
</svg>