<svg xmlns="http://www.w3.org/2000/svg" width="215.625" height="42" viewBox="0 0 215.625 42">
  <metadata><?xpacket begin="﻿" id="W5M0MpCehiHzreSzNTczkc9d"?>
<x:xmpmeta xmlns:x="adobe:ns:meta/" x:xmptk="Adobe XMP Core 5.6-c138 79.159824, 2016/09/14-01:09:01        ">
   <rdf:RDF xmlns:rdf="http://www.w3.org/1999/02/22-rdf-syntax-ns#">
      <rdf:Description rdf:about=""/>
   </rdf:RDF>
</x:xmpmeta>
                                                                                                    
                                                                                                    
                                                                                                    
                                                                                                    
                                                                                                    
                                                                                                    
                                                                                                    
                                                                                                    
                                                                                                    
                                                                                                    
                                                                                                    
                                                                                                    
                                                                                                    
                                                                                                    
                                                                                                    
                                                                                                    
                                                                                                    
                                                                                                    
                                                                                                    
                                                                                                    
                           
<?xpacket end="w"?></metadata>
<defs>
    <style>
      .cls-1 {
        fill: #605e58;
        fill-rule: evenodd;
      }
    </style>
  </defs>
  <path class="cls-1" d="M541.571,1308.83c0.034-.64.106-0.66,2.294-0.93l2.088-.25,0.09-.5c0.107-.6.1-12.26-0.01-19.24l-0.078-4.9-0.572-.17a14.9,14.9,0,0,0-2.086-.27c-1.542-.11-1.73-0.18-1.734-0.67,0-.21.36-0.22,5.839-0.22,8.711,0,11.214.27,13.585,1.48a5.41,5.41,0,0,1,3.086,4.04,8.571,8.571,0,0,1-1.506,5,13.933,13.933,0,0,1-7.567,4.76c-1.812.46-2.1,0.49-2.1,0.22,0-.63.139-0.75,1.342-1.22a8.238,8.238,0,0,0,3.286-2.09,6.763,6.763,0,0,0,1.714-5.28,4.36,4.36,0,0,0-.455-2.3c-1-2.11-3.128-3.23-6.526-3.43l-1.372-.09-0.11.56c-0.124.62-.1,20.03,0.024,22.58,0.078,1.55.1,1.66,0.357,1.73,0.151,0.04,1.249.16,2.44,0.27s2.236,0.22,2.324.25a0.388,0.388,0,0,1,.16.37v0.31h-5.713c-3.142,0-6.409.04-7.261,0.09-1.286.06-1.547,0.05-1.54-.1h0Zm110.826,0.44c-2.183-1.76-6.072-5.88-11.052-11.72a8.049,8.049,0,0,0-1.1-1.16c-0.427,0-5.54,7.71-6.951,10.48l-0.394.77,1.233,0.2c0.678,0.12,1.413.23,1.632,0.27a0.55,0.55,0,0,1,.552.59c0,0.11-1.313.15-5.14,0.16l-5.139.02,0.081-.27c0.131-.43.324-0.53,1.313-0.69a3.709,3.709,0,0,0,2.752-1.56c1.31-1.39,7.639-9.25,8.978-11.15,0.086-.13-0.126-0.46-0.771-1.22-0.489-.57-2.231-2.82-3.872-4.99s-3.38-4.39-3.863-4.94a2.549,2.549,0,0,0-1.7-1.21,6.57,6.57,0,0,0-1.3-.22c-0.42-.01-0.475-0.05-0.475-0.33a1.218,1.218,0,0,0-.034-0.36c-0.02-.02,2.75-0.08,6.15-0.12,5.778-.06,6.182-0.06,6.181.15,0,0.4-.2.49-1.524,0.7-0.734.11-1.492,0.25-1.683,0.3l-0.349.09,0.866,1.31a89.894,89.894,0,0,0,5.381,7.38c0.268,0.02,4.762-6.26,5.81-8.11,0.38-.67.352-0.69-1.293-0.98-1.146-.19-1.229-0.23-1.288-0.53a1.209,1.209,0,0,1-.042-0.34c0.011-.02,2.12-0.04,4.684-0.07l4.664-.04-0.082.37a3.369,3.369,0,0,1-.1.4c-0.01.01-.584,0.14-1.275,0.28a2.625,2.625,0,0,0-1.944.92c-0.79.76-4.155,4.51-6.582,7.34l-1.653,1.93,0.99,1.26c0.983,1.24,1.418,1.84,6.011,8.22,1.957,2.72,4.859,6.66,5.422,7.36,0.1,0.12-.134.15-1.088,0.15h-1.214l-0.8-.64h0Zm102.063-.28c-2.127-1.55-6.657-6.01-11.172-10.98l-1.809-1.99-1.83.07a11.644,11.644,0,0,0-1.932.17c-0.123.11,0.037,10.77,0.166,10.97s0.816,0.33,2.608.5c1.476,0.15,1.54.17,1.616,0.46a0.873,0.873,0,0,1,.042.35c-0.024.02-3.063,0.05-6.76,0.08l-6.722.04a0.882,0.882,0,0,1,.158-0.65,14.406,14.406,0,0,1,2.111-.33,8.761,8.761,0,0,0,2.042-.36,6.274,6.274,0,0,0,.18-1.21c0.1-1.19-.042-22.27-0.158-22.83-0.09-.44-0.527-0.58-2.124-0.67-2.135-.13-2.209-0.15-2.209-0.57v-0.36h4.576c12.728,0.01,15.571.44,17.567,2.62,1.244,1.36,1.373,3.15.371,5.17a12.493,12.493,0,0,1-4.3,4.43l-0.655.38,0.456,0.77c0.653,1.11,4.267,6.44,5.758,8.5a57.291,57.291,0,0,0,3.7,4.69l1.046,1.21-0.795.13c-0.437.08-.829,0.14-0.869,0.14a10.492,10.492,0,0,1-1.063-.73h0Zm-13.37-14.37a7.271,7.271,0,0,0,4.06-2.04,5.5,5.5,0,0,0,1.773-3.22c0.6-2.88-1.314-5.27-4.951-6.19a12.568,12.568,0,0,0-4.126-.39c-0.116.12-.165,1.66-0.2,6.21l-0.042,6.05,1.115-.08c0.613-.05,1.679-0.2,2.368-0.34h0Zm-66.531,13.86c0.066-.44-0.051-0.4,2.059-0.72l1.458-.23,0.472-.88c0.9-1.67,2.8-6.27,6.657-16.15,1.572-4.02,2.847-7.47,2.784-7.54a10.286,10.286,0,0,0-1.306-.24c-1.915-.29-1.821-0.26-1.821-0.64v-0.35l6.041-.04c5.57-.03,6.035-0.02,5.961.17a1.18,1.18,0,0,0-.08.36,3.04,3.04,0,0,1-1.461.38,7.448,7.448,0,0,0-1.524.33c-0.034.06,0.618,2.01,1.451,4.34,3.038,8.48,5.61,15,7.364,18.64l0.731,1.53,0.62,0.14a23.634,23.634,0,0,0,2.729.39,0.338,0.338,0,0,1,.262.36l0.053,0.36-6.666.06c-3.667.03-6.674,0.05-6.683,0.04a2.115,2.115,0,0,1,.042-0.39l0.06-.39,1.732-.21c2.19-.27,2.343-0.31,2.227-0.57-0.144-.32-1.246-3.4-2.025-5.65-0.393-1.13-1-2.81-1.351-3.72l-0.637-1.66H693c-1.977,0-8.455.4-8.586,0.53a73.519,73.519,0,0,0-2.525,8.99c-0.177.89-.322,1.65-0.322,1.67a5.453,5.453,0,0,0,2.029.43c1.433,0.21,1.459.22,1.5,0.56l0.042,0.34h-4.67c-2.568,0-4.96.04-5.316,0.08l-0.646.08,0.058-.4h0Zm18.674-13.72c-0.067-.18-0.209-0.48-0.315-0.69-0.182-.34-1.8-4.98-3.064-8.76-0.309-.93-0.581-1.71-0.6-1.73-0.152-.15-4.261,10.71-4.261,11.25a23.292,23.292,0,0,0,3.2.15c1.762,0.02,3.644.05,4.183,0.06l0.979,0.03-0.121-.31h0Zm-91.5-26.76a8.5,8.5,0,0,0-3.4,16.34l-5.858,5.38-2.989,5.84a1.378,1.378,0,0,0,1.653,1.91l3.214,4.03,0.01,3.02h-0.33v0.54h0.37v0.37h-0.437v2.01h1.746l-0.011-2.36,0.887-.02v-0.54H596v-1.09l4.046-1.98c1.074-.53.717-1.51,0.132-2.09l-4.853-4.86,5.21-4.95a1.274,1.274,0,0,0,.477-0.77l0.859-3.76a8.51,8.51,0,1,0-.145-17.02h0Zm0,4.62a3.89,3.89,0,1,1-3.941,3.89A3.915,3.915,0,0,1,601.729,1272.62Zm0,0.82a3.07,3.07,0,1,0,3.107,3.07A3.095,3.095,0,0,0,601.729,1273.44Zm-2.751,12.11h0.833l-0.569,3.35a26.438,26.438,0,0,1-2.353,2.6c-0.156-.06-3.411-1.35-3.411-1.35Zm-5.289,5.79,2.393,0.98-1.878,1.74a6.148,6.148,0,0,1-1.322-.85C592.944,1293.09,593.689,1291.34,593.689,1291.34Zm0.713,4s3.58,3.91,3.61,4.03a24.123,24.123,0,0,1-2.552,1.62l-3.318-4.33Zm-3.835.13a0.376,0.376,0,0,1,.106,0,0.522,0.522,0,0,1,.529.52,0.529,0.529,0,0,1-1.058,0A0.539,0.539,0,0,1,590.567,1295.47Zm8.874,4.75a0.34,0.34,0,1,1-.344.34A0.34,0.34,0,0,1,599.441,1300.22Zm-3.8,1.75a0.52,0.52,0,1,1-.528.52A0.522,0.522,0,0,1,595.645,1301.97Zm-4.006,4.73a28.164,28.164,0,0,0-5.58.52,0.844,0.844,0,0,0,0,1.13h15.6c0.311-.21.269-0.48,0-0.78A48.51,48.51,0,0,0,591.639,1306.7Zm-6.9,2.18V1310h20.747v-1.12H584.736Z" transform="translate(-541.563 -1268)"/>
</svg>
