<svg xmlns="http://www.w3.org/2000/svg" width="46.03" height="56"><path d="M44.96 6H6.56a1 1 0 1 1 0-2h38.4a1 1 0 1 1 0 2zm0 4H6.56a1 1 0 1 1 0-2h38.4a1 1 0 1 1 0 2zm-.93 2H7.07a4.775 4.775 0 0 1-5.06-4.53v-.93A4.777 4.777 0 0 1 7.07 2h38.4V0H7.07A6.834 6.834 0 0 0-.01 6.54v.93A6.832 6.832 0 0 0 7.07 14h38.96v-2h-2zM6.05 5h38.4M6.05 9h38.4m-.42 4.87V50h-.1a4.992 4.992 0 0 1-.9 1.97V52H43a6.251 6.251 0 0 1-4.61 2H7.07a5.034 5.034 0 0 1-4.02-2h-.03v-.03a4.856 4.856 0 0 1-.9-1.97h-.11V9.16c-.01-.02-.02-.03-.03-.05a2.862 2.862 0 0 1-.22-.3.3.3 0 0 1-.04-.1c-.01 0-.01-.01-.01-.02a3.015 3.015 0 0 1-.26-2.26 1.783 1.783 0 0 1 .14-.36L.03 6v43a7.016 7.016 0 0 0 7.04 7h31.32c3.9 0 7.64-3.14 7.64-7V12.79zM33.34 34H12.71a2.68 2.68 0 0 1-2.68-2.68v-8.64A2.68 2.68 0 0 1 12.71 20h20.63a2.68 2.68 0 0 1 2.68 2.68v8.64A2.68 2.68 0 0 1 33.34 34zM12.71 22a.681.681 0 0 0-.68.68v8.64a.674.674 0 0 0 .68.68h20.63a.674.674 0 0 0 .68-.68v-8.64a.681.681 0 0 0-.68-.68H12.71zm14.06 22h-8.08a1 1 0 1 1 0-2h8.08a1 1 0 1 1 0 2zm-2.02 4h-4.04a1 1 0 1 1 0-2h4.04a1 1 0 1 1 0 2z" fill="#ff4b64" fill-rule="evenodd"/></svg>