<svg xmlns="http://www.w3.org/2000/svg" width="47" height="56"><path fill-rule="evenodd" fill="#FF4B64" d="M39.361 56.001H8.035c-3.9 0-7.035-3.142-7.035-7V8.147a6.102 6.102 0 0 1-.039-.68v-.932C.961 2.932 4.135.001 8.035.001h38.4V2h-38.4C5.249 2 2.982 3.962 2.982 6.535v.932C2.982 10.041 5.249 12 8.035 12h38.963v37.001c0 3.858-3.737 7-7.637 7zm5.637-7v-35H8.035c-1.978 0-3.768-.756-5.053-1.97v37.97h.103a4.94 4.94 0 0 0 .908 1.967v.033h.024A5.048 5.048 0 0 0 8.035 54h31.326c1.645 0 3.7-.791 4.613-1.999h.024v-.033c.429-.576.75-1.239.898-1.967h.102v-1zm-10.685-15H13.677a2.68 2.68 0 0 1-2.678-2.679V22.68A2.682 2.682 0 0 1 13.677 20h20.636a2.681 2.681 0 0 1 2.678 2.68v8.642a2.68 2.68 0 0 1-2.678 2.679zm.679-11.321a.681.681 0 0 0-.679-.68H13.677a.681.681 0 0 0-.679.68v8.642a.68.68 0 0 0 .679.679h20.636a.68.68 0 0 0 .679-.679V22.68zM19.656 42.001h8.084c.559 0 1.011.446 1.011 1S28.299 44 27.74 44h-8.084c-.558 0-1.01-.445-1.01-.999s.452-1 1.01-1zm2.021 4h4.042c.558 0 1.011.446 1.011.999 0 .555-.453 1.001-1.011 1.001h-4.042c-.558 0-1.01-.446-1.01-1.001 0-.553.452-.999 1.01-.999zm24.253-36H7.53A1.007 1.007 0 0 1 6.519 9c0-.551.453-1 1.011-1h38.4c.558 0 1.01.449 1.01 1 0 .552-.452 1.001-1.01 1.001zm0-3.999H7.53A1.007 1.007 0 0 1 6.519 5c0-.551.453-.999 1.011-.999h38.4c.558 0 1.01.448 1.01.999 0 .553-.452 1.002-1.01 1.002z"/></svg>