<svg id="icon" xmlns="http://www.w3.org/2000/svg" width="148" height="94"><defs><style>.cls-5{fill-rule:evenodd}.cls-3{fill:#f8f6f2}.cls-5{fill:#c9c6bf}.cls-7{fill:#f5f3f0}</style></defs><g id="iMac"><rect id="Rounded_Rectangle_18" data-name="Rounded Rectangle 18" x="59" y="91" width="46" height="3" rx="1.5" ry="1.5" fill="#dfdcd5"/><path d="M668 4019h20l2 13h-24z" transform="translate(-596 -3941)" fill-rule="evenodd" fill="#dfdcd5"/><path class="cls-3" d="M35 4h94v58H35z"/><rect id="Rounded_Rectangle_17_copy" data-name="Rounded Rectangle 17 copy" x="31" y="62" width="102" height="16" rx="4" ry="4" fill="#e8e5de"/><path id="Rounded_Rectangle_16" data-name="Rounded Rectangle 16" class="cls-5" d="M631 3941h94a4 4 0 0 1 4 4v58a4 4 0 0 1-4 4h-94a4 4 0 0 1-4-4v-58a4 4 0 0 1 4-4zm2 4h90a2 2 0 0 1 2 2v54a2 2 0 0 1-2 2h-90a2 2 0 0 1-2-2v-54a2 2 0 0 1 2-2z" transform="translate(-596 -3941)"/><circle cx="82" cy="72" r="3" fill="#c9c6bf"/></g><g id="iPad"><path class="cls-3" d="M3 38h35v46H3z"/><path id="Rounded_Rectangle_13" data-name="Rounded Rectangle 13" class="cls-5" d="M600 3972h33a4 4 0 0 1 4 4v54a4 4 0 0 1-4 4h-33a4 4 0 0 1-4-4v-54a4 4 0 0 1 4-4zm1 7h31a2 2 0 0 1 2 2v42a2 2 0 0 1-2 2h-31a2 2 0 0 1-2-2v-42a2 2 0 0 1 2-2z" transform="translate(-596 -3941)"/><circle class="cls-7" cx="20.5" cy="34.5" r="1.5"/><circle class="cls-7" cx="20.5" cy="88.5" r="2.5"/></g><g id="iPhone"><path class="cls-3" d="M125 52h21v36h-21z"/><path id="Rounded_Rectangle_13_copy" data-name="Rounded Rectangle 13 copy" class="cls-5" d="M723 3988h17a4 4 0 0 1 4 4v38a4 4 0 0 1-4 4h-17a4 4 0 0 1-4-4v-38a4 4 0 0 1 4-4zm0 5h17a2 2 0 0 1 2 2v32a2 2 0 0 1-2 2h-17a2 2 0 0 1-2-2v-32a2 2 0 0 1 2-2z" transform="translate(-596 -3941)"/><rect id="Rounded_Rectangle_14" data-name="Rounded Rectangle 14" class="cls-7" x="134" y="49" width="3" height="1" rx=".5" ry=".5"/><circle id="Ellipse_4_copy" data-name="Ellipse 4 copy" class="cls-7" cx="135.5" cy="90.5" r="1.5"/></g></svg>