<svg xmlns="http://www.w3.org/2000/svg" width="168.75" height="70"><path d="M26.707 32.05c-6.294.47-14.343 1.63-14.277 3.82.068 2.29 6 6.7 13.79 9.57.363-4.69.452-9.67.487-13.39zM3.669 8.43C1.596 8.49.033 7.59-.005 6.34c-.028-.92 2-3.79 3.233-4.26A36.1 36.1 0 0 1 15.038.01a68.294 68.294 0 0 1 10.5.77c21.2 3.12 43.458 19.19 43.883 33.45.29 9.69-8.137 18.79-24.59 19.28a43.129 43.129 0 0 1-12.034-1.36c-.079 2.38.1 3.64-3.3 3.74-2.077.06-2.886-3.29-3.192-6.01-9.932-4.38-15.916-11.49-16-14.3-.125-4.18 7.525-7.67 16.472-9.05.127-3.47.716-12.28 2.555-12.34.739-.02 2.269 1.69 2.847 4.29a46.4 46.4 0 0 1 .586 7.46l.675-.03c12.555-.37 20.079 3.54 20.217 8.16a5.376 5.376 0 0 1-4.757 5.46c-1.674.05-3.635-.89-3.651-1.41-.029-.98 3.572-1.22 3.525-2.81-.072-2.4-10.054-3.46-16.2-3.5-.009 2.08-.036 4.58.015 6.26.048 1.61.149 5.78.2 9.27a36.819 36.819 0 0 0 8.482.82c6.63-.2 21.775-2.6 21.437-13.91-.472-15.8-31.9-30.32-48.735-29.82-6.63.2-10.609.9-10.59 1.55.013.43 3.229.6 3.255 1.45s-1.838.97-2.969 1zM74.218 25.7c1.083-.03 2.636 2.55 2.684 4.17s.437 10.05.551 12.48a36.672 36.672 0 0 1-.126 5.84c-.159 1.08-.553 1.61-2.414 1.67a2.611 2.611 0 0 1-2.886-2.68c-.158-1.63-.3-6.25-.215-8.57s.191-6.74.494-9.52 1.052-3.36 1.912-3.39zM84.992 6.74c-.309-.77-1.345-2.32-5.043-2.21-8.057.24-14.255 6.17-14.115 10.85a5.851 5.851 0 0 0 1.866 3.94 4.072 4.072 0 0 0-.3 1.56c.024.82 1.254 2.96 2.2 2.93.8-.02 1.344-.77 2.113-1.97a10 10 0 0 0 3.661.73c7.575-.22 14.449-7.28 14.314-11.79-.067-2.08-1.422-4.09-4.696-4.04zM73.557 17.95c.933-1.3 5.769-7.74 10.752-7.89a1.653 1.653 0 0 1 1.879 1.85c.046 1.55-2.775 6.07-9.126 6.26a17.911 17.911 0 0 1-3.505-.22zm-3.941-2.13a1.935 1.935 0 0 1-.238-.96c-.031-1.04 1.766-5 6.285-5.32a19.149 19.149 0 0 0-3.468 3.07 31.84 31.84 0 0 0-2.579 3.21zm24.254 9.45c4.436-.13 9.992.44 10.034 1.85a2.738 2.738 0 0 1-2.776 2.78c-2.792.28-16.872.88-16.82 2.61.027.91 4.258 1.11 8.139 1.35 3.987.24 10.391.38 10.582 6.8.151 5.06-1.776 6.13-2.644 6.54a23.962 23.962 0 0 1-7.64 1.99c-8.551.25-12.076-4.63-12.151-7.11-.065-2.21 2.216-4.16 6.052-4.28s9.776 1.27 9.823 2.83c.038 1.27-2.582 1.93-3.741 1.96-5.234.16-4.977-1.96-7.994-1.87-1.719.05-4.13 3.68 4.481 3.43 7.672-.23 10-2.74 9.956-4.09-.053-1.79-5.558-2.66-8.742-2.83s-7.964-.14-9.594-1.16-1.4-3.35-.837-5.27c1.18-4.01 9.437-5.4 13.872-5.53zm15.147 1.66c3-.09 9.281 13.42 10.34 13.39s.271-3.16-.4-6.61c-1.513-7.81-3.873-11.83-1.655-11.9 1.638-.05 7.012 5.12 7.311 15.13.139 4.65-.519 10.73-4.755 10.85-4.016.12-8.592-12.48-9.631-12.45-.56.01-.607 7.81-.756 10.16s-.972 3.6-2.291 3.64c-2 .06-2.875-1.84-2.987-5.59s1.129-16.51 4.824-16.62zm30.475 7.31c1.418-.05 2.671-.28 2.546 1.55s-.2 2.57-1.682 2.61l-7.584.23c-.251.84-.9 3-1.191 3.91-.366 1.14.787.89 2.274.47a45.019 45.019 0 0 1 7.182-1.23c1.658-.05 2.9 2.58 1.944 3.48s-6.083 5.21-11.438 5.37a5.649 5.649 0 0 1-5.524-5.5 19.329 19.329 0 0 1 1.44-6.41 1.333 1.333 0 0 1-.419-.94c-.239-1.28-.821-2.7 1.332-2.94.172-.02.389-.04.642-.06l1.777-3.64a6.335 6.335 0 0 1-1.825-.49 4.544 4.544 0 0 1-2.347-2.93c-.047-1.57 11.523-2.51 14.2-2.59 2.877-.08 3.693.47 4.612 1.77a6.379 6.379 0 0 1 1.277 2.59c.011.36-.323 1.24-3.8 1.35-1.779.05-4.654.35-7.413.45l-1.2 3.18c2.685-.13 5.197-.23 5.197-.23zm7.84 10.87c-3.107 6.09-5.2 12.55-5.053 17.41.164 5.47 3.546 7.51 4.574 7.48s1.079-1.65 1.264-2.86a80.842 80.842 0 0 1 4.9-17.98 8.613 8.613 0 0 0 2.368.27c6.3-.18 13.6-7.66 13.362-15.63-.125-4.21-1.743-7.19-4.455-7.11-3.966.12-9.669 6.08-14.248 13.56-.409-3.04 2-7.71 4.053-10.98 1.442-2.29 1.189-5.02.59-5-.839.02-8.966 6.86-8.685 16.24a8.939 8.939 0 0 0 1.33 4.6zm8.4-1.9c3.793-7.37 7.7-11.57 9.08-11.61 2.388-.07.37 10.65-9.076 11.61z" fill="#5f94ff" fill-rule="evenodd"/></svg>