<svg xmlns="http://www.w3.org/2000/svg" width="183.75" height="70"><path d="M15.79 52.39s.47 2.91 4.33 2.91 3.47-2.95 3.47-3.22V34.73l14.9-4.27v26.48c0 2.27-2.12 13.06-14.9 13.01-9.44.05-14.56-5.21-14.56-5.21zm23.72-12.44h14.2V55.3c0 2.42 4.88 3.1 4.88-.55v-14.8h14.18v17.61c0 .62-.94 12.38-16.48 12.39s-16.78-11.19-16.78-12.2v-17.8zm48.49 0H73.72v29.5H88V56.06c-.38-3.51 4.89-4.57 4.89.22v13.17h14.23V49.43s-.76-10.02-9.24-10.22c-6.41-.15-9.09 3.62-9.09 3.62zm34.35 29.5h-14.29v-29.5h14.29v29.5zm18.51-30.16c-9.87 0-17.98 5.65-17.87 15.35s8 15.36 17.87 15.36 17.76-5.58 17.87-15.36-8-15.35-17.87-15.35zm.04 19.56a4.21 4.21 0 0 1 0-8.41 4.21 4.21 0 0 1 0 8.41zm18.51-18.9v29.5h14.38V57.07c0-1.76 2.82-7.23 9.96-4.1V39.29c-6.24-.04-7.57 1.13-10.34 4.45v-3.79h-14zm-37.06 7.67h-14.29v-7.67h14.29v7.67zm-2.3 3.65a1.53 1.53 0 1 1-1.53-1.53 1.536 1.536 0 0 1 1.53 1.53zm-6.31 0a1.53 1.53 0 1 1-1.53-1.53 1.536 1.536 0 0 1 1.53 1.53zM16.12 23.34c-3.8.28-8.66.99-8.62 2.31.05 1.39 3.62 4.07 8.32 5.81.22-2.85.28-5.87.3-8.12zM2.22 9.01C.97 9.05.03 8.51 0 7.74a4.676 4.676 0 0 1 1.95-2.58A22.019 22.019 0 0 1 9.08 3.9a43.172 43.172 0 0 1 6.33.47c12.79 1.9 26.21 11.64 26.47 20.29.17 5.88-4.91 11.39-14.83 11.69a25.446 25.446 0 0 1-7.26-.83c-.05 1.45.06 2.21-1.99 2.27-1.26.04-1.74-1.99-1.93-3.64-5.99-2.66-9.6-6.97-9.65-8.67-.07-2.54 4.54-4.66 9.94-5.49.07-2.1.43-7.45 1.54-7.48.44-.02 1.37 1.02 1.72 2.6a28.436 28.436 0 0 1 .35 4.52l.41-.01c7.57-.23 12.11 2.14 12.19 4.94a3.241 3.241 0 0 1-2.87 3.31c-1.01.03-2.19-.54-2.2-.85-.02-.6 2.15-.74 2.12-1.71-.04-1.45-6.06-2.09-9.77-2.12 0 1.26-.02 2.78.01 3.8.03.98.09 3.51.12 5.62a21.582 21.582 0 0 0 5.12.49c4-.11 13.13-1.57 12.93-8.43-.29-9.58-19.25-18.39-29.4-18.08-4 .11-6.4.54-6.39.94.01.26 1.95.36 1.97.87s-1.11.59-1.79.61zm42.56 10.48c.65-.02 1.59 1.54 1.61 2.52s.27 6.1.34 7.58a22.8 22.8 0 0 1-.08 3.54c-.1.65-.33.97-1.46 1.01a1.584 1.584 0 0 1-1.74-1.63c-.09-.99-.18-3.79-.13-5.19s.12-4.09.3-5.78.64-2.04 1.16-2.05zm7.35-18.15C51.95.87 51.32-.07 49.09 0c-4.86.14-8.6 3.74-8.51 6.58a3.6 3.6 0 0 0 1.12 2.39 2.583 2.583 0 0 0-.18.95c.02.49.76 1.79 1.33 1.77.48-.01.81-.46 1.27-1.19a6.011 6.011 0 0 0 2.21.44c4.57-.14 8.72-4.42 8.63-7.15a2.47 2.47 0 0 0-2.83-2.45zm-6.89 6.8c.56-.79 3.48-4.7 6.48-4.79a1 1 0 0 1 1.14 1.12c.02.94-1.68 3.69-5.51 3.8a10.8 10.8 0 0 1-2.11-.13zm-2.38-1.3a1.152 1.152 0 0 1-.14-.58 4.076 4.076 0 0 1 3.79-3.23 11.4 11.4 0 0 0-2.09 1.87 18.36 18.36 0 0 0-1.56 1.94zm13.77 12.38c2.67-.08 6.03.27 6.05 1.12a1.648 1.648 0 0 1-1.67 1.69c-1.69.17-10.18.53-10.15 1.58.02.56 2.57.68 4.91.82 2.41.15 6.27.24 6.38 4.13.1 3.07-1.07 3.72-1.59 3.96a14.468 14.468 0 0 1-4.61 1.21c-5.16.16-7.28-2.81-7.33-4.31-.04-1.34 1.34-2.53 3.65-2.59s5.9.76 5.93 1.71c.02.77-1.56 1.17-2.26 1.19-3.16.09-3-1.19-4.82-1.13-1.04.03-2.49 2.23 2.7 2.07 4.63-.13 6.03-1.66 6.01-2.48-.04-1.08-3.36-1.61-5.28-1.71s-4.8-.09-5.78-.71-.85-2.03-.51-3.19c.71-2.43 5.69-3.28 8.37-3.36zm9.14 1.01c1.8-.05 5.59 8.14 6.23 8.12s.17-1.91-.24-4.01c-.91-4.73-2.33-7.17-1-7.21.99-.03 4.23 3.1 4.41 9.17.09 2.82-.31 6.51-2.86 6.58-2.43.08-5.19-7.57-5.81-7.55-.34.01-.37 4.74-.46 6.16s-.59 2.19-1.38 2.21c-1.21.04-1.73-1.12-1.8-3.39s.68-10.01 2.91-10.08zm18.38 4.43c.85-.02 1.61-.17 1.53.94s-.12 1.56-1.01 1.59l-4.57.14c-.16.5-.55 1.81-.72 2.37-.22.69.47.54 1.37.28a27.564 27.564 0 0 1 4.33-.74c1-.03 1.75 1.56 1.17 2.11s-3.67 3.16-6.9 3.25a3.407 3.407 0 0 1-3.33-3.33 11.9 11.9 0 0 1 .87-3.89.762.762 0 0 1-.25-.57c-.15-.78-.5-1.63.8-1.78.1-.01.24-.02.39-.04l1.07-2.2a4.147 4.147 0 0 1-1.1-.3 2.8 2.8 0 0 1-1.42-1.78c-.02-.95 6.95-1.52 8.57-1.57 1.74-.05 2.23.28 2.78 1.08a3.717 3.717 0 0 1 .77 1.56c.01.22-.19.76-2.29.82-1.07.03-2.81.21-4.47.27l-.73 1.93c1.62-.08 3.14-.14 3.14-.14zm4.73 6.6c-1.88 3.69-3.14 7.61-3.05 10.55.1 3.32 2.14 4.56 2.76 4.54s.65-1 .76-1.73a49.174 49.174 0 0 1 2.96-10.91 5.168 5.168 0 0 0 1.43.17c3.8-.11 8.2-4.65 8.06-9.48-.08-2.55-1.05-4.36-2.69-4.31-2.39.07-5.83 3.68-8.59 8.22-.25-1.84 1.2-4.68 2.44-6.66.87-1.39.72-3.04.36-3.03-.51.01-5.41 4.16-5.24 9.85a5.42 5.42 0 0 0 .8 2.79zm5.07-1.15c2.29-4.47 4.65-7.02 5.47-7.05 1.44-.04.23 6.46-5.47 7.05zm29.27-8.99a4.086 4.086 0 0 0-4.09 4.08 4.159 4.159 0 0 0 .18 1.18 6.367 6.367 0 0 0-3.83-1.28 6.492 6.492 0 0 0-1.93.3 4.085 4.085 0 1 0-3.37 1.77 4.767 4.767 0 0 0 .66-.05 6.29 6.29 0 0 0-1.72 4.34 6.36 6.36 0 1 0 12.72 0 6.235 6.235 0 0 0-.6-2.69 4.134 4.134 0 0 0 1.98.51 4.08 4.08 0 0 0 0-8.16z" fill="#ff4b64" fill-rule="evenodd"/></svg>