<svg xmlns="http://www.w3.org/2000/svg" width="184" height="70"><path fill-rule="evenodd" fill="#FF4B64" d="M174.04 57.075v12.379h-14.376V39.946h14v3.789c2.765-3.315 4.097-4.484 10.336-4.446v13.679c-7.143-3.128-9.96 2.338-9.96 4.107zM141.113 70c-9.87 0-17.759-5.652-17.872-15.356-.113-9.703 8.002-15.355 17.872-15.355s17.985 5.577 17.872 15.355C158.872 64.423 150.983 70 141.113 70zm.038-19.563c-2.207 0-4.022 1.549-3.997 4.207.025 2.659 1.79 4.208 3.997 4.208s3.971-1.528 3.996-4.208c.025-2.678-1.789-4.207-3.996-4.207zm-17.686-21.158a4.063 4.063 0 0 1-1.971-.507 6.359 6.359 0 0 1-5.765 9.043 6.359 6.359 0 0 1-6.361-6.357 6.33 6.33 0 0 1 1.717-4.342c-.213.035-.43.057-.653.057a4.08 4.08 0 1 1 0-8.157 4.08 4.08 0 0 1 3.366 6.384 6.353 6.353 0 0 1 1.931-.299 6.34 6.34 0 0 1 3.831 1.282 4.08 4.08 0 0 1 3.905-5.261 4.08 4.08 0 0 1 0 8.157zm-29.476 4.6a5.24 5.24 0 0 1-1.429-.167 48.75 48.75 0 0 0-2.431 8.02c1.319-1.099 3.889-2.615 8.001-2.518 8.483.199 9.245 10.211 9.245 10.211v20.029H93.139v-13.17c0-4.794-5.265-3.731-4.885-.227v13.397H73.972V39.946h12.223c.336-2.633 1.43-5.728 2.933-8.69-.479-.756-.766-1.684-.8-2.789-.169-5.689 4.733-9.836 5.24-9.851.361-.011.513 1.644-.356 3.036-1.239 1.982-2.692 4.816-2.445 6.658 2.762-4.538 6.202-8.153 8.594-8.223 1.636-.049 2.612 1.76 2.688 4.311.143 4.831-4.261 9.369-8.06 9.481zm5.686-10.816c-.83.024-3.189 2.573-5.477 7.044 5.698-.584 6.915-7.087 5.477-7.044zM86.46 22.6c-1.072.032-2.807.212-4.471.273l-.725 1.931c1.619-.081 3.135-.142 3.135-.142.855-.026 1.611-.169 1.535.943-.075 1.111-.122 1.558-1.014 1.585l-4.575.135a187.99 187.99 0 0 1-.718 2.373c-.221.693.474.54 1.371.284.897-.256 3.332-.714 4.332-.743 1.001-.03 1.748 1.563 1.173 2.11-.574.548-3.669 3.159-6.899 3.255-1.386.041-3.268-1.169-3.332-3.336-.034-1.148.427-2.688.869-3.884-.108-.068-.19-.226-.254-.57-.143-.78-.494-1.637.804-1.784.104-.012.235-.024.387-.037l1.072-2.207c-.435-.064-.811-.16-1.1-.298-.789-.377-1.404-1.345-1.416-1.779-.029-.951 6.951-1.52 8.566-1.567 1.735-.052 2.228.283 2.782 1.074.554.791.763 1.352.77 1.568.006.217-.194.753-2.292.816zM72.557 32.885c-2.423.071-5.183-7.573-5.81-7.554-.337.009-.366 4.735-.456 6.161-.09 1.424-.586 2.186-1.382 2.21-1.205.036-1.734-1.118-1.802-3.394-.067-2.276.68-10.013 2.909-10.079 1.808-.054 5.598 8.139 6.237 8.12.639-.019.164-1.914-.24-4.007-.913-4.734-2.336-7.175-.998-7.214.988-.03 4.229 3.104 4.41 9.175.083 2.817-.313 6.506-2.868 6.582zm-11.3-10.851c-1.684.171-10.177.531-10.146 1.579.017.554 2.569.677 4.91.819 2.405.145 6.268.235 6.383 4.125.091 3.071-1.072 3.721-1.595 3.965-.664.311-2.897 1.159-4.608 1.21-5.158.153-7.285-2.809-7.33-4.315-.039-1.337 1.337-2.523 3.651-2.592 2.314-.068 5.897.766 5.925 1.717.023.771-1.557 1.167-2.256 1.188-3.158.094-3.003-1.188-4.823-1.135-1.036.031-2.491 2.232 2.703 2.078 4.628-.137 6.031-1.661 6.006-2.481-.032-1.084-3.353-1.612-5.274-1.711-1.921-.1-4.803-.087-5.787-.709-.983-.621-.845-2.028-.505-3.191.712-2.432 5.693-3.279 8.368-3.358 2.676-.08 6.028.267 6.053 1.122.015.5-.247 1.544-1.675 1.689zM46.58 10.939c-.626.018-1.416-.137-2.208-.443-.464.73-.793 1.18-1.275 1.195-.569.017-1.31-1.283-1.325-1.776-.006-.177.012-.486.182-.95-.654-.661-1.098-1.468-1.126-2.389-.084-2.835 3.655-6.433 8.515-6.577 2.231-.066 2.856.873 3.042 1.338 1.974-.031 2.792 1.188 2.829 2.448.082 2.738-4.064 7.018-8.634 7.154zm-3.613-4.677c.008.284.074.467.143.582.382-.564.902-1.21 1.556-1.944a11.518 11.518 0 0 1 2.092-1.866c-2.727.197-3.81 2.601-3.791 3.228zm10.139-1.788c-.018-.602-.251-1.148-1.133-1.121-3.006.089-5.923 3.992-6.486 4.786.566.093 1.274.156 2.114.131 3.831-.113 5.533-2.857 5.505-3.796zM38.736 32.37v24.573c0 2.271-2.114 13.053-14.893 13.006-9.443.047-14.564-5.212-14.564-5.212l6.766-12.348s.469 2.91 4.322 2.91c3.852 0 3.477-2.946 3.477-3.221l-.001-15.868a25.568 25.568 0 0 1-3.806-.686c-.048 1.444.059 2.209-1.989 2.27-1.253.037-1.742-1.992-1.926-3.642-5.991-2.657-9.601-6.973-9.652-8.676-.075-2.536 4.54-4.652 9.937-5.489.076-2.1.431-7.447 1.541-7.479.445-.014 1.369 1.019 1.717 2.6.317 1.437.35 4.056.354 4.522l.407-.015c7.573-.224 12.112 2.142 12.195 4.945.064 2.173-1.86 3.285-2.87 3.315-1.009.03-2.192-.544-2.202-.857-.018-.598 2.155-.738 2.126-1.704-.043-1.459-6.064-2.098-9.774-2.121-.005 1.257-.022 2.773.009 3.793.029.979.09 3.51.12 5.621 1.683.356 3.417.548 5.116.497 4-.118 13.135-1.576 12.931-8.435C37.793 15.087 18.835 6.284 8.68 6.585c-3.999.12-6.399.548-6.388.94.008.262 1.948.363 1.963.88.016.517-1.102.588-1.786.608C1.219 9.05.276 8.505.253 7.742c-.016-.558 1.205-2.299 1.95-2.581.51-.193 2.99-1.134 7.124-1.257 1.532-.045 4.134.143 6.331.468 12.789 1.894 26.214 11.641 26.471 20.284.084 2.841-1.07 5.591-3.393 7.714zM7.754 25.654c.041 1.39 3.62 4.061 8.319 5.801.218-2.845.272-5.86.293-8.116-3.796.282-8.651.986-8.612 2.315zm37.69 8.482c-1.122.033-1.645-.635-1.741-1.623-.095-.988-.178-3.791-.129-5.196.049-1.404.115-4.091.298-5.774.183-1.683.634-2.042 1.153-2.057.653-.02 1.59 1.547 1.619 2.526.029.98.264 6.099.332 7.573.069 1.475.02 2.888-.076 3.542-.096.653-.333.976-1.456 1.009zm8.514 21.168c0 2.42 4.886 3.098 4.886-.557V39.946h14.175v17.619c0 .611-.943 12.371-16.477 12.384-15.534.013-16.778-11.186-16.778-12.196V39.946h14.194v15.358zm68.638-7.686v21.836h-14.282V39.946h14.282v7.672z"/></svg>