<svg id="Группа_1" data-name="Группа 1" xmlns="http://www.w3.org/2000/svg" width="42" height="47"><defs><style>.cls-1{fill:#fff;fill-rule:evenodd}</style></defs><path id="Ellipse_3_copy" data-name="Ellipse 3 copy" class="cls-1" d="M1278 58a21 21 0 1 1-21 21 21 21 0 0 1 21-21zm0 2a19 19 0 1 1-19 19 19 19 0 0 1 19-19z" transform="translate(-1257 -58)"/><path id="Ellipse_3_copy_2" data-name="Ellipse 3 copy 2" class="cls-1" d="M1278 71a8 8 0 1 1-8 8 8 8 0 0 1 8-8zm0 2a6 6 0 1 1-6 6 6 6 0 0 1 6-6z" transform="translate(-1257 -58)"/><path class="cls-1" d="M1278 83a11 11 0 1 1-11 11 11 11 0 0 1 11-11zm0 2a9 9 0 1 1-9 9 9 9 0 0 1 9-9zm-4-4h8v8h-8v-8zm-7 15h22v9h-22v-9z" transform="translate(-1257 -58)"/></svg>