<svg xmlns="http://www.w3.org/2000/svg" width="20" height="18"><path fill-rule="evenodd" fill="#E5E2DB" d="M16.319 9.237c.221.662.368 1.356.368 2.091C16.687 15.013 13.693 18 10 18s-6.688-2.987-6.688-6.672c0-.735.148-1.429.369-2.091A4.666 4.666 0 0 1 0 4.672C0 2.092 2.085 0 4.656 0c2.572 0 4.656 2.092 4.656 4.672 0 .018-.005.035-.005.054.231-.024.456-.07.693-.07.237 0 .462.046.693.07 0-.019-.006-.036-.006-.054A4.665 4.665 0 0 1 15.344 0C17.915 0 20 2.092 20 4.672a4.666 4.666 0 0 1-3.681 4.565z"/></svg>