<svg xmlns="http://www.w3.org/2000/svg" width="51" height="57"><path d="M25.7 57.01a.981.981 0 0 1-.626-.22 32.194 32.194 0 0 0-12.214-5.6c-2.1-.4-3.835-.64-5.369-.86-3.693-.51-5.922-.82-7.321-2.72a1 1 0 0 1-.174-.81 1.016 1.016 0 0 1 .5-.67l4.538-2.51a1 1 0 0 1 .657-.11l1.641.28-.047-.07a26.206 26.206 0 1 1 43.639-27.69 1.008 1.008 0 0 1-.46 1.28l-6.733 3.53a1 1 0 0 1-1.19-.19l-2.894-2.98-.808.72a24.119 24.119 0 0 1 6.023 17.73 1.008 1.008 0 0 1-1 .94h-1.74c.721 3.55 1.6 9.58-.386 10.97a4.992 4.992 0 0 1-2.913.78 11.689 11.689 0 0 1-2.916-.42l-.41.66 6.142 2.54a1.011 1.011 0 0 1 .1 1.82 29.163 29.163 0 0 1-5.379 2.32 3.991 3.991 0 0 1-.8.08 13.454 13.454 0 0 1-7.658-3.35c-1.6-1.6-3.112-6.82-3.649-8.83a3.72 3.72 0 0 0-3.67 2.28 31.818 31.818 0 0 1 4.7 6.68l1.352 3a1 1 0 0 1-.935 1.42zm-1.365-15.39a6.121 6.121 0 0 1 .84.05 1.014 1.014 0 0 1 .826.75c.683 2.74 2.186 7.49 3.307 8.62a11.568 11.568 0 0 0 6.234 2.75 1.487 1.487 0 0 0 .368-.03 16.434 16.434 0 0 0 2.922-1.15l-5.213-2.15a1.015 1.015 0 0 1-.469-1.47l1.449-2.32a1 1 0 0 1 1.193-.41 10.7 10.7 0 0 0 3.022.54 3.148 3.148 0 0 0 1.758-.42c.69-.62.365-5.44-.687-10.1a1.008 1.008 0 0 1 .982-1.23h2.028a22.179 22.179 0 0 0-6.2-15.97 1 1 0 0 1 .01-1.49l2.314-2.06a1 1 0 0 1 1.392.05l3.041 3.13 5.234-2.75A24.179 24.179 0 1 0 8.813 42.41c.033.04.064.08.092.12l1.4 2.08a1.011 1.011 0 0 1-1 1.56l-3.611-.62-2.985 1.66c.982.54 2.52.77 5.058 1.13 1.481.2 3.324.46 5.471.87a32.058 32.058 0 0 1 10.086 3.99 34.048 34.048 0 0 0-4.642-6.37 1.018 1.018 0 0 1-.231-.96 5.749 5.749 0 0 1 5.883-4.25zm15.174-10.13a.615.615 0 0 1-.189-.02l-4.056-.77a1.008 1.008 0 0 1 .377-1.98l4.055.77a1.015 1.015 0 0 1 .8 1.18 1 1 0 0 1-.988.82zm-2.262-14.93a.974.974 0 0 1-.518-.14 15.585 15.585 0 0 0-1.678-.88 1.014 1.014 0 0 1-.5-1.34 1 1 0 0 1 1.333-.5 19.1 19.1 0 0 1 1.885.99 1.007 1.007 0 0 1 .343 1.38 1 1 0 0 1-.866.49zM11.3 28.79a.757.757 0 0 1-.15-.01 1.012 1.012 0 0 1-.848-1.15 18.314 18.314 0 0 1 1.1-4.06 1 1 0 0 1 1.308-.56 1.009 1.009 0 0 1 .562 1.31 16.171 16.171 0 0 0-.976 3.61 1.007 1.007 0 0 1-.996.86zm2.922-7.33a1.022 1.022 0 0 1-.576-.18 1.006 1.006 0 0 1-.248-1.4 18.365 18.365 0 0 1 2.792-3.15 1.006 1.006 0 0 1 1.342 1.5 16.582 16.582 0 0 0-2.484 2.8 1.006 1.006 0 0 1-.822.43zm5.885-5.26a1.013 1.013 0 0 1-.484-1.9 18.24 18.24 0 0 1 3.9-1.57 1.006 1.006 0 1 1 .532 1.94 16.046 16.046 0 0 0-3.468 1.4.944.944 0 0 1-.476.13zm11.57-1.78a1.3 1.3 0 0 1-.194-.02 16.088 16.088 0 0 0-3.73-.29 1 1 0 0 1-1.044-.97 1.011 1.011 0 0 1 .969-1.05 18.419 18.419 0 0 1 4.191.33 1.01 1.01 0 0 1-.188 2zm-20.23 20.37a1.007 1.007 0 0 1-.986-.81 18.883 18.883 0 0 1-.3-2.11 1 1 0 0 1 .92-1.09 1.013 1.013 0 0 1 1.086.92 16.771 16.771 0 0 0 .265 1.88 1.014 1.014 0 0 1-.788 1.19 1.369 1.369 0 0 1-.193.02zm3.722 7.92a.99.99 0 0 1-.709-.3 1 1 0 0 1-.005-1.42c1.5-1.52 3.233-3.61 3.4-4.35.265-1.16-.429-3.47-.987-5.33a25.653 25.653 0 0 1-.749-2.85c-.76-4.54 2.555-8.47 6.177-10.35a11.456 11.456 0 0 1 13 1.73 1.015 1.015 0 0 1 .061 1.43 1 1 0 0 1-1.422.06A9.457 9.457 0 0 0 23.22 19.9c-2.974 1.54-5.709 4.69-5.117 8.23a25.086 25.086 0 0 0 .692 2.6c.658 2.19 1.4 4.68 1.021 6.36s-3.347 4.72-3.937 5.32a1 1 0 0 1-.706.3zm20.28 5.5h-.116a1.01 1.01 0 0 1-.886-1.11 11.668 11.668 0 0 0-2.216-7.47c-1.027-1.38-2.273-1.52-3.715-1.69-1.947-.22-4.369-.49-5.544-4.32-1.866-6.08 0-9.75.075-9.91a1.008 1.008 0 0 1 1.784.94c-.012.02-1.54 3.15.066 8.38.787 2.57 2 2.7 3.843 2.91 1.586.18 3.558.4 5.107 2.48a13.531 13.531 0 0 1 2.6 8.9 1.008 1.008 0 0 1-.994.89z" fill="#5f94ff" fill-rule="evenodd"/></svg>