<svg xmlns="http://www.w3.org/2000/svg" width="56" height="56"><path d="M12 13.79a3.44 3.44 0 0 1 1 .16V10a1 1 0 0 0-2 0v3.95a3.44 3.44 0 0 1 1-.16zm0 6.17a3.44 3.44 0 0 1-1-.16V45a1 1 0 0 0 2 0V19.8a3.44 3.44 0 0 1-1 .16zm15.875 10.13a3.029 3.029 0 0 1-.875-.13V45a1 1 0 0 0 2 0V29.88a3.047 3.047 0 0 1-1.125.21zm0-6.18a3.047 3.047 0 0 1 1.125.21V10a1 1 0 0 0-2 0v14.04a3.029 3.029 0 0 1 .875-.13zM44 39.96a3.134 3.134 0 0 1-1-.16V45a1 1 0 0 0 2 0v-5.2a3.134 3.134 0 0 1-1 .16zm0-6.17a3.44 3.44 0 0 1 1 .16V10a1 1 0 0 0-2 0v23.95a3.44 3.44 0 0 1 1-.16zM12.125 21h-.25A3.879 3.879 0 0 1 8 17.13v-.25A3.881 3.881 0 0 1 11.875 13h.25A3.881 3.881 0 0 1 16 16.88v.25A3.879 3.879 0 0 1 12.125 21zm-.25-6A1.877 1.877 0 0 0 10 16.88v.25A1.875 1.875 0 0 0 11.875 19h.25A1.875 1.875 0 0 0 14 17.13v-.25A1.877 1.877 0 0 0 12.125 15h-.25zm16.25 16h-.25A3.879 3.879 0 0 1 24 27.13v-.25A3.881 3.881 0 0 1 27.875 23h.25A3.881 3.881 0 0 1 32 26.88v.25A3.879 3.879 0 0 1 28.125 31zm-.25-6A1.877 1.877 0 0 0 26 26.88v.25A1.875 1.875 0 0 0 27.875 29h.25A1.875 1.875 0 0 0 30 27.13v-.25A1.877 1.877 0 0 0 28.125 25h-.25zm16.25 16h-.25A3.879 3.879 0 0 1 40 37.13v-.25A3.881 3.881 0 0 1 43.875 33h.25A3.881 3.881 0 0 1 48 36.88v.25A3.879 3.879 0 0 1 44.125 41zm-.25-6A1.877 1.877 0 0 0 42 36.88v.25A1.875 1.875 0 0 0 43.875 39h.25A1.875 1.875 0 0 0 46 37.13v-.25A1.877 1.877 0 0 0 44.125 35h-.25zM56 56H0V0h56v56zM2 54h52V2H2v52z" fill="#ffca2a" fill-rule="evenodd"/></svg>