<svg xmlns="http://www.w3.org/2000/svg" width="56" height="56"><path fill-rule="evenodd" fill="#FFCA2A" d="M0 56.001v-56h56v56H0zM54 2.002H2V54h52V2.002zM11 13.109v-3.108a1.001 1.001 0 0 1 2 0v3.108c1.715.399 3 1.931 3 3.766v.251a3.876 3.876 0 0 1-3 3.767v24.108a.999.999 0 1 1-2 0V20.892a3.874 3.874 0 0 1-3-3.766v-.251a3.875 3.875 0 0 1 3-3.766zm-1 4.017c0 1.033.841 1.874 1.875 1.874h.25A1.877 1.877 0 0 0 14 17.126v-.251a1.877 1.877 0 0 0-1.875-1.874h-.25A1.877 1.877 0 0 0 10 16.875v.251zm17 5.982V10.001a1 1 0 1 1 2 0v13.107c1.715.399 3 1.932 3 3.767v.251a3.876 3.876 0 0 1-3 3.767v14.108A.998.998 0 0 1 28 46c-.553 0-1-.446-1-.999V30.893a3.876 3.876 0 0 1-3-3.767v-.251a3.876 3.876 0 0 1 3-3.767zm-1 4.018c0 1.033.841 1.874 1.875 1.874h.25A1.877 1.877 0 0 0 30 27.126v-.251a1.877 1.877 0 0 0-1.875-1.874h-.25A1.877 1.877 0 0 0 26 26.875v.251zm17 5.983V10.001a1 1 0 1 1 2 0v23.108c1.715.399 3 1.932 3 3.766v.251a3.876 3.876 0 0 1-3 3.767v4.108A.998.998 0 0 1 44 46c-.553 0-1-.446-1-.999v-4.108a3.876 3.876 0 0 1-3-3.767v-.251a3.876 3.876 0 0 1 3-3.766zm-1 4.017c0 1.033.841 1.874 1.875 1.874h.25A1.877 1.877 0 0 0 46 37.126v-.251a1.877 1.877 0 0 0-1.875-1.874h-.25A1.877 1.877 0 0 0 42 36.875v.251z"/></svg>