<svg xmlns="http://www.w3.org/2000/svg" width="215.625" height="42"><path d="M.008 40.83c.034-.64.106-.66 2.294-.93l2.088-.25.09-.5c.107-.6.1-12.26-.01-19.24l-.078-4.9-.572-.17a14.9 14.9 0 0 0-2.086-.27C.192 14.46.004 14.39 0 13.9c0-.21.36-.22 5.839-.22 8.711 0 11.214.27 13.585 1.48a5.41 5.41 0 0 1 3.086 4.04 8.571 8.571 0 0 1-1.506 5 13.933 13.933 0 0 1-7.567 4.76c-1.812.46-2.1.49-2.1.22 0-.63.139-.75 1.342-1.22a8.238 8.238 0 0 0 3.286-2.09 6.763 6.763 0 0 0 1.714-5.28 4.36 4.36 0 0 0-.455-2.3c-1-2.11-3.128-3.23-6.526-3.43l-1.372-.09-.11.56c-.124.62-.1 20.03.024 22.58.078 1.55.1 1.66.357 1.73.151.04 1.249.16 2.44.27s2.236.22 2.324.25a.388.388 0 0 1 .16.37v.31H8.808c-3.142 0-6.409.04-7.261.09-1.286.06-1.547.05-1.54-.1zm110.826.44c-2.183-1.76-6.072-5.88-11.052-11.72a8.049 8.049 0 0 0-1.1-1.16c-.427 0-5.54 7.71-6.951 10.48l-.394.77 1.233.2c.678.12 1.413.23 1.632.27a.55.55 0 0 1 .552.59c0 .11-1.313.15-5.14.16l-5.139.02.081-.27c.131-.43.324-.53 1.313-.69a3.709 3.709 0 0 0 2.752-1.56c1.31-1.39 7.639-9.25 8.978-11.15.086-.13-.126-.46-.771-1.22-.489-.57-2.231-2.82-3.872-4.99s-3.38-4.39-3.863-4.94a2.549 2.549 0 0 0-1.7-1.21 6.57 6.57 0 0 0-1.3-.22c-.42-.01-.475-.05-.475-.33a1.218 1.218 0 0 0-.034-.36c-.02-.02 2.75-.08 6.15-.12 5.778-.06 6.182-.06 6.181.15 0 .4-.2.49-1.524.7-.734.11-1.492.25-1.683.3l-.349.09.866 1.31a89.894 89.894 0 0 0 5.381 7.38c.268.02 4.762-6.26 5.81-8.11.38-.67.352-.69-1.293-.98-1.146-.19-1.229-.23-1.288-.53a1.209 1.209 0 0 1-.042-.34c.011-.02 2.12-.04 4.684-.07l4.664-.04-.082.37a3.369 3.369 0 0 1-.1.4c-.01.01-.584.14-1.275.28a2.625 2.625 0 0 0-1.944.92c-.79.76-4.155 4.51-6.582 7.34l-1.653 1.93.99 1.26c.983 1.24 1.418 1.84 6.011 8.22 1.957 2.72 4.859 6.66 5.422 7.36.1.12-.134.15-1.088.15h-1.214l-.8-.64zm102.063-.28c-2.127-1.55-6.657-6.01-11.172-10.98l-1.809-1.99-1.83.07a11.644 11.644 0 0 0-1.932.17c-.123.11.037 10.77.166 10.97s.816.33 2.608.5c1.476.15 1.54.17 1.616.46a.873.873 0 0 1 .042.35c-.024.02-3.063.05-6.76.08l-6.722.04a.882.882 0 0 1 .158-.65 14.406 14.406 0 0 1 2.111-.33 8.761 8.761 0 0 0 2.042-.36 6.274 6.274 0 0 0 .18-1.21c.1-1.19-.042-22.27-.158-22.83-.09-.44-.527-.58-2.124-.67-2.135-.13-2.209-.15-2.209-.57v-.36h4.576c12.728.01 15.571.44 17.567 2.62 1.244 1.36 1.373 3.15.371 5.17a12.493 12.493 0 0 1-4.3 4.43l-.655.38.456.77c.653 1.11 4.267 6.44 5.758 8.5a57.291 57.291 0 0 0 3.7 4.69l1.046 1.21-.795.13c-.437.08-.829.14-.869.14a10.492 10.492 0 0 1-1.063-.73zm-13.37-14.37a7.271 7.271 0 0 0 4.06-2.04 5.5 5.5 0 0 0 1.773-3.22c.6-2.88-1.314-5.27-4.951-6.19a12.568 12.568 0 0 0-4.126-.39c-.116.12-.165 1.66-.2 6.21l-.042 6.05 1.115-.08c.613-.05 1.679-.2 2.368-.34zm-66.531 13.86c.066-.44-.051-.4 2.059-.72l1.458-.23.472-.88c.9-1.67 2.8-6.27 6.657-16.15 1.572-4.02 2.847-7.47 2.784-7.54a10.286 10.286 0 0 0-1.306-.24c-1.915-.29-1.821-.26-1.821-.64v-.35l6.041-.04c5.57-.03 6.035-.02 5.961.17a1.18 1.18 0 0 0-.08.36 3.04 3.04 0 0 1-1.461.38 7.448 7.448 0 0 0-1.524.33c-.034.06.618 2.01 1.451 4.34 3.038 8.48 5.61 15 7.364 18.64l.731 1.53.62.14a23.634 23.634 0 0 0 2.729.39.338.338 0 0 1 .262.36l.053.36-6.666.06c-3.667.03-6.674.05-6.683.04a2.115 2.115 0 0 1 .042-.39l.06-.39 1.732-.21c2.19-.27 2.343-.31 2.227-.57-.144-.32-1.246-3.4-2.025-5.65-.393-1.13-1-2.81-1.351-3.72l-.637-1.66h-.708c-1.977 0-8.455.4-8.586.53a73.519 73.519 0 0 0-2.525 8.99c-.177.89-.322 1.65-.322 1.67a5.453 5.453 0 0 0 2.029.43c1.433.21 1.459.22 1.5.56l.042.34h-4.67c-2.568 0-4.96.04-5.316.08l-.646.08.058-.4zm18.674-13.72a8.32 8.32 0 0 0-.315-.69c-.182-.34-1.8-4.98-3.064-8.76-.309-.93-.581-1.71-.6-1.73-.152-.15-4.261 10.71-4.261 11.25a23.292 23.292 0 0 0 3.2.15c1.762.02 3.644.05 4.183.06l.979.03-.121-.31zM60.17 0a8.5 8.5 0 0 0-3.4 16.34l-5.858 5.38-2.989 5.84a1.378 1.378 0 0 0 1.653 1.91l3.214 4.03.01 3.02h-.33v.54h.37v.37h-.437v2.01h1.746l-.011-2.36.887-.02v-.54h-.588v-1.09l4.046-1.98c1.074-.53.717-1.51.132-2.09l-4.853-4.86 5.21-4.95a1.274 1.274 0 0 0 .477-.77l.859-3.76A8.51 8.51 0 1 0 60.163 0zm0 4.62a3.89 3.89 0 1 1-3.941 3.89 3.915 3.915 0 0 1 3.937-3.89zm0 .82a3.07 3.07 0 1 0 3.107 3.07 3.095 3.095 0 0 0-3.111-3.07zm-2.751 12.11h.833l-.569 3.35a26.438 26.438 0 0 1-2.353 2.6c-.156-.06-3.411-1.35-3.411-1.35zm-5.289 5.79l2.393.98-1.878 1.74a6.148 6.148 0 0 1-1.322-.85c.058-.12.803-1.87.803-1.87zm.713 4s3.58 3.91 3.61 4.03a24.123 24.123 0 0 1-2.552 1.62l-3.318-4.33zm-3.835.13a.376.376 0 0 1 .106 0 .522.522 0 0 1 .529.52.529.529 0 0 1-1.058 0 .539.539 0 0 1 .419-.52zm8.874 4.75a.34.34 0 1 1-.344.34.34.34 0 0 1 .34-.34zm-3.8 1.75a.52.52 0 1 1-.528.52.522.522 0 0 1 .528-.52zm-4.006 4.73a28.164 28.164 0 0 0-5.58.52.844.844 0 0 0 0 1.13h15.6c.311-.21.269-.48 0-.78a48.51 48.51 0 0 0-10.02-.87zm-6.9 2.18V42h20.747v-1.12h-20.75z" fill="#605e58" fill-rule="evenodd"/></svg>